<?xml version="1.0" standalone="no"?>
<!DOCTYPE svg PUBLIC "-//W3C//DTD SVG 20010904//EN"
 "http://www.w3.org/TR/2001/REC-SVG-20010904/DTD/svg10.dtd">
<svg version="1.0" xmlns="http://www.w3.org/2000/svg"
 width="312.000000pt" height="312.000000pt" viewBox="0 0 312.000000 312.000000"
 preserveAspectRatio="xMidYMid meet">

<g transform="translate(0.000000,312.000000) scale(0.100000,-0.100000)"
fill="#000000" stroke="none">
<path d="M1415 3080 c-33 -11 -109 -47 -170 -80 -191 -105 -266 -138 -425
-184 -325 -95 -380 -133 -471 -321 -21 -44 -57 -145 -79 -225 -31 -107 -63
-191 -125 -320 -110 -230 -125 -277 -125 -388 0 -116 14 -161 120 -382 69
-145 99 -220 134 -345 101 -356 177 -434 517 -525 176 -48 229 -69 424 -175
173 -93 240 -115 351 -115 97 0 196 31 310 98 156 90 255 132 431 183 220 63
311 108 388 191 87 94 118 164 215 492 22 76 67 196 99 266 76 164 91 215 91
317 0 106 -17 156 -125 383 -62 130 -95 212 -125 320 -68 240 -105 317 -194
398 -57 53 -120 82 -246 117 -262 72 -264 73 -520 207 -80 42 -169 83 -199 92
-75 22 -201 20 -276 -4z m417 -240 c486 -103 877 -451 1022 -907 85 -270 81
-581 -10 -835 -143 -398 -474 -715 -874 -838 -154 -47 -259 -63 -420 -63 -389
-1 -727 144 -997 426 -188 197 -302 422 -347 686 -20 121 -21 331 -1 447 90
512 485 937 995 1069 191 50 443 56 632 15z"/>
<path d="M1446 2791 c-4 -5 -1 -11 5 -13 7 -2 14 -30 17 -63 4 -48 2 -60 -14
-72 -15 -11 -8 -13 59 -13 l77 0 -1 33 c0 29 -1 30 -9 10 -9 -23 -51 -40 -69
-28 -15 8 -14 65 0 65 7 0 18 -8 25 -17 12 -16 13 -14 14 21 0 37 -1 38 -18
23 -27 -25 -34 -21 -30 15 4 45 34 50 65 12 17 -21 23 -24 23 -12 0 41 -10 48
-75 48 -35 0 -66 -4 -69 -9z"/>
<path d="M1650 2789 c0 -5 4 -9 8 -9 12 0 -7 -133 -20 -141 -5 -4 7 -10 27
-13 20 -4 40 -5 43 -2 3 3 0 6 -6 6 -7 0 -12 15 -12 35 0 23 5 35 14 35 16 0
26 -21 26 -55 0 -30 29 -41 49 -19 9 9 10 14 3 10 -7 -4 -14 0 -18 11 -3 10
-10 26 -15 36 -8 15 -6 20 10 24 35 9 37 54 3 68 -31 12 -112 22 -112 14z
m100 -42 c0 -17 -20 -37 -37 -37 -13 0 -19 51 -7 63 10 9 44 -12 44 -26z"/>
<path d="M1315 2776 c-36 -7 -60 -17 -59 -24 5 -55 6 -57 15 -24 16 53 35 39
49 -34 11 -55 10 -68 -1 -75 -10 -6 -7 -8 11 -8 31 1 82 17 59 18 -9 1 -20 8
-23 17 -11 28 -19 124 -11 124 5 0 20 -10 33 -22 21 -20 24 -20 19 -5 -4 10
-7 25 -7 33 0 16 -2 16 -85 0z"/>
<path d="M1867 2741 c7 -28 -25 -118 -45 -126 -15 -6 -15 -8 3 -15 11 -5 27
-9 35 -9 12 -1 13 1 1 8 -14 9 -11 33 10 88 11 27 12 26 38 -45 15 -40 31 -73
37 -73 5 0 17 26 26 58 10 32 24 63 33 69 17 13 10 24 -16 24 -12 0 -16 -6
-12 -18 2 -10 -2 -34 -10 -53 l-14 -34 -22 60 c-20 54 -42 85 -62 85 -4 0 -5
-9 -2 -19z"/>
<path d="M1170 2740 c-13 -8 -13 -11 1 -22 15 -12 43 -78 34 -78 -3 0 -30 16
-60 36 -37 23 -62 33 -75 29 -17 -6 -18 -8 -6 -21 8 -7 22 -36 31 -64 14 -43
15 -53 3 -67 -12 -15 -10 -16 17 -9 39 10 42 14 22 29 -16 12 -52 86 -45 92 2
2 31 -14 65 -36 57 -36 83 -47 83 -34 0 2 -9 28 -21 57 -11 29 -19 63 -16 75
4 24 -8 29 -33 13z"/>
<path d="M961 2651 c-28 -15 -31 -19 -15 -23 27 -7 77 -107 63 -125 -16 -18 0
-16 41 7 22 12 28 19 18 20 -25 0 -85 119 -66 131 25 16 -7 8 -41 -10z"/>
<path d="M2067 2610 c-32 -28 -65 -50 -73 -50 -19 0 -9 -16 18 -31 17 -9 19
-8 14 9 -9 28 9 36 45 22 32 -14 40 -46 12 -52 -14 -3 -11 -8 14 -21 18 -9 33
-17 35 -17 2 0 4 43 5 95 2 52 -1 95 -5 95 -4 -1 -33 -23 -65 -50z m33 -20 c0
-28 -2 -30 -21 -20 -20 11 -20 12 -3 31 23 25 24 24 24 -11z"/>
<path d="M2246 2577 c5 -15 -65 -115 -85 -119 -7 -2 12 -20 42 -41 58 -40 69
-41 88 -6 9 19 9 19 -10 10 -27 -15 -56 -14 -70 2 -16 20 62 129 87 120 9 -3
4 6 -13 21 -33 28 -47 33 -39 13z"/>
<path d="M1363 2566 c-212 -41 -391 -135 -550 -289 -137 -133 -223 -274 -280
-462 -25 -83 -27 -103 -27 -270 -1 -158 2 -190 22 -265 93 -340 349 -612 686
-726 216 -74 490 -73 699 3 332 119 571 371 674 708 25 84 27 102 27 275 0
173 -2 191 -27 273 -58 189 -145 334 -279 463 -139 135 -284 218 -469 270 -78
21 -121 26 -249 30 -104 2 -178 -1 -227 -10z m375 -17 c157 -25 326 -98 460
-199 496 -373 546 -1090 108 -1526 -93 -93 -173 -149 -289 -204 -336 -160
-726 -136 -1032 64 -486 317 -616 953 -292 1431 54 79 186 211 265 264 228
154 504 213 780 170z"/>
<path d="M1353 2489 c-371 -78 -660 -354 -759 -724 -14 -54 -18 -105 -18 -225
0 -182 18 -267 88 -415 102 -214 270 -376 496 -477 47 -21 92 -38 100 -38 24
0 -2 15 -65 39 -281 104 -508 361 -586 666 -30 114 -32 320 -6 429 92 371 380
653 749 731 294 63 597 -10 833 -199 149 -119 277 -315 327 -501 28 -105 31
-344 5 -447 -45 -181 -128 -329 -257 -459 -87 -88 -170 -146 -284 -200 -44
-21 -74 -38 -66 -38 23 -1 152 63 218 108 233 158 399 436 420 705 18 232 -38
454 -161 636 -45 66 -173 196 -242 245 -223 159 -522 221 -792 164z"/>
<path d="M1545 2394 c-16 -15 -23 -23 -15 -19 8 5 23 15 32 23 15 13 21 12 50
-13 28 -24 38 -27 85 -23 51 4 54 3 79 -30 15 -19 44 -42 65 -51 36 -16 38
-19 24 -37 -24 -32 -17 -37 9 -7 l25 28 -50 22 c-32 14 -56 34 -69 56 -21 35
-21 35 -78 30 -52 -5 -61 -3 -89 21 -17 14 -32 26 -34 26 -2 -1 -17 -12 -34
-26z"/>
<path d="M1367 2335 c-21 -25 -52 -48 -72 -55 l-35 -11 23 -31 c20 -27 22 -43
27 -221 3 -106 11 -203 17 -217 20 -46 56 -69 133 -85 41 -9 84 -22 95 -29 18
-12 25 -12 47 0 15 8 57 21 95 30 129 29 143 54 143 248 l0 136 -65 0 c-62 0
-65 -1 -71 -27 -19 -88 -62 -133 -126 -133 -33 0 -47 7 -79 38 -26 27 -40 51
-44 78 l-7 39 -64 -3 -64 -4 0 49 c0 29 -8 65 -20 88 -11 21 -19 39 -17 39 31
9 82 47 98 72 18 30 23 32 57 27 44 -7 41 2 -4 10 -27 5 -35 1 -67 -38z m372
-430 c1 -10 -4 -22 -13 -27 -21 -12 -20 -25 3 -31 14 -3 17 -11 14 -30 -5 -28
-33 -59 -33 -38 0 6 5 11 11 11 5 0 7 5 3 11 -4 8 -9 8 -17 0 -17 -17 -23 -13
-22 16 0 19 -7 31 -23 39 -17 8 -20 13 -10 18 10 5 10 7 1 12 -7 3 -13 10 -13
15 0 6 8 6 19 -1 26 -13 31 -13 31 4 0 30 43 30 49 1z"/>
<path d="M1488 2363 c7 -3 16 -2 19 1 4 3 -2 6 -13 5 -11 0 -14 -3 -6 -6z"/>
<path d="M1030 2256 c0 -35 -4 -75 -9 -88 -5 -13 -26 -195 -47 -405 l-39 -383
-36 0 c-22 0 -42 7 -53 19 -16 17 -15 23 14 97 16 43 30 83 29 89 0 5 -15 -26
-32 -70 -38 -95 -44 -105 -63 -105 -11 0 -14 24 -14 135 0 122 6 155 25 126 3
-5 22 -23 43 -39 l37 -30 -5 87 -6 86 43 47 c24 26 43 50 43 54 0 4 -18 -13
-39 -37 -44 -49 -68 -48 -27 1 14 17 26 37 26 43 0 7 -6 3 -12 -8 -18 -34 -50
-65 -60 -58 -6 3 -5 -4 2 -16 8 -15 8 -26 1 -34 -5 -7 -11 -34 -13 -61 l-3
-48 -28 22 -27 21 -55 -46 c-30 -26 -55 -51 -55 -54 0 -4 14 -44 30 -89 17
-46 30 -84 30 -86 0 -2 -11 -7 -25 -10 -15 -4 -27 -16 -31 -32 -8 -32 -1 -39
41 -36 19 2 48 -4 64 -13 40 -20 58 -19 78 5 16 18 30 20 170 20 90 0 154 4
158 10 4 6 -8 10 -29 10 -32 0 -35 3 -39 33 l-4 32 -1 -32 -2 -33 -80 0 -80 0
0 44 c0 58 5 70 46 101 l34 26 33 -27 c17 -14 35 -38 38 -53 4 -17 7 -7 6 29
0 30 -2 45 -4 32 l-4 -22 -30 21 -30 21 23 25 c21 22 23 23 29 6 6 -15 8 -13
8 7 3 67 -43 556 -52 562 -6 4 -8 35 -4 82 3 42 1 78 -4 81 -5 4 -9 -22 -9
-59z m19 -300 c8 -10 8 -16 -3 -25 -10 -9 -16 -8 -26 3 -12 15 -6 36 9 36 5 0
14 -6 20 -14z m5 -72 c7 -19 -1 -34 -19 -34 -18 0 -28 17 -21 35 7 20 32 19
40 -1z m0 -73 c20 -22 14 -41 -13 -41 -28 0 -46 26 -31 45 16 20 23 19 44 -4z
m6 -77 c11 -13 10 -19 -8 -37 -17 -17 -24 -19 -34 -9 -19 19 -33 14 -14 -6 15
-18 15 -20 -2 -35 -24 -22 -32 -21 -32 3 0 40 42 98 71 100 4 0 12 -7 19 -16z
m1 -100 l24 -26 -24 -19 c-30 -24 -43 -24 -66 1 -18 20 -18 21 5 45 29 31 31
31 61 -1z m-59 -61 c14 -16 13 -20 -13 -41 l-29 -24 0 35 c0 50 15 60 42 30z"/>
<path d="M1525 2240 c-3 -6 1 -7 9 -4 18 7 21 14 7 14 -6 0 -13 -4 -16 -10z"/>
<path d="M885 2202 c-24 -31 -43 -65 -22 -39 14 16 15 16 21 -5 3 -13 0 -37
-6 -55 -10 -26 -8 -39 7 -72 10 -23 20 -39 22 -37 3 2 -3 18 -11 35 -18 34
-20 45 -7 37 4 -3 6 5 4 18 -3 13 0 33 6 44 8 15 8 21 -2 25 -9 3 -9 11 0 37
16 42 13 45 -12 12z"/>
<path d="M1489 2213 c-13 -16 -12 -17 4 -4 9 7 17 15 17 17 0 8 -8 3 -21 -13z"/>
<path d="M1836 2159 c-4 -23 -5 -44 -2 -46 2 -2 7 14 11 37 4 23 5 43 2 46 -2
3 -7 -14 -11 -37z"/>
<path d="M1701 2124 c0 -11 3 -14 6 -6 3 7 2 16 -1 19 -3 4 -6 -2 -5 -13z"/>
<path d="M840 2085 c0 -5 5 -17 10 -25 5 -8 10 -10 10 -5 0 6 -5 17 -10 25 -5
8 -10 11 -10 5z"/>
<path d="M920 2023 c13 -18 25 -33 27 -33 8 0 -17 38 -33 51 -11 9 -9 2 6 -18z"/>
<path d="M911 1964 c0 -11 3 -14 6 -6 3 7 2 16 -1 19 -3 4 -6 -2 -5 -13z"/>
<path d="M871 1944 c0 -11 3 -14 6 -6 3 7 2 16 -1 19 -3 4 -6 -2 -5 -13z"/>
<path d="M961 1944 c0 -11 3 -14 6 -6 3 7 2 16 -1 19 -3 4 -6 -2 -5 -13z"/>
<path d="M2380 1921 c14 -27 13 -57 -5 -94 -15 -30 -15 -30 0 -12 9 11 19 32
22 47 3 16 10 25 16 21 6 -4 1 8 -12 25 -25 35 -37 43 -21 13z"/>
<path d="M856 1905 c-9 -26 -7 -32 5 -12 6 10 9 21 6 23 -2 3 -7 -2 -11 -11z"/>
<path d="M961 1904 c0 -11 3 -14 6 -6 3 7 2 16 -1 19 -3 4 -6 -2 -5 -13z"/>
<path d="M2397 1772 c-10 -10 -17 -31 -17 -47 0 -19 -13 -41 -44 -71 -24 -24
-48 -44 -55 -44 -7 0 -11 23 -11 65 0 58 -2 65 -20 65 -17 0 -20 -7 -20 -41 0
-33 -3 -39 -13 -30 -10 8 -22 1 -52 -29 -36 -37 -40 -39 -57 -23 -10 9 -18 30
-18 50 0 23 -5 33 -15 33 -8 0 -15 -8 -15 -17 0 -9 -3 -13 -7 -9 -4 3 -26 -13
-50 -36 l-43 -42 0 -108 0 -108 -25 0 c-14 0 -25 -4 -25 -10 0 -6 102 -10 288
-10 241 1 284 3 270 14 -15 11 -18 30 -18 114 0 98 -1 102 -30 135 -24 28 -30
44 -30 83 0 30 6 54 17 66 9 10 14 18 11 18 -3 0 -12 -8 -21 -18z m-308 -149
c30 -36 31 -41 31 -139 0 -55 -3 -103 -6 -107 -3 -3 -12 -3 -20 0 -11 4 -14
30 -14 114 l0 109 -40 0 -40 0 0 -110 c0 -91 -3 -110 -15 -110 -12 0 -15 19
-15 107 0 107 0 107 32 140 18 18 37 33 44 33 7 0 26 -17 43 -37z m160 0 c30
-36 31 -40 31 -139 0 -93 -2 -102 -20 -107 -19 -5 -20 0 -20 109 l0 114 -40 0
-40 0 0 -110 c0 -91 -3 -110 -15 -110 -12 0 -15 19 -15 107 0 107 0 107 32
140 18 18 37 33 44 33 7 0 26 -17 43 -37z m153 0 l38 -37 0 -103 c0 -94 -2
-103 -19 -103 -15 0 -19 11 -25 61 -3 34 -6 84 -6 110 l0 49 -35 0 -35 0 0
-115 c0 -98 -2 -114 -15 -109 -12 5 -15 27 -15 112 0 106 0 106 32 139 18 18
34 33 37 33 3 0 22 -17 43 -37z"/>
<path d="M2350 1731 c0 -6 4 -13 10 -16 6 -3 7 1 4 9 -7 18 -14 21 -14 7z"/>
<path d="M1307 1529 c-21 -12 -47 -61 -47 -89 0 -12 12 -33 28 -47 15 -14 26
-30 24 -35 -1 -5 6 -4 17 2 26 14 436 14 462 0 11 -6 18 -7 17 -2 -2 5 10 22
26 36 24 23 28 32 23 64 -8 45 -47 82 -86 82 -16 0 -59 -11 -95 -25 -38 -14
-88 -25 -115 -25 -27 0 -78 11 -115 25 -71 27 -110 31 -139 14z m137 -24 c41
-16 87 -25 122 -25 36 0 75 9 114 25 33 14 68 25 79 25 49 0 91 -41 91 -87 0
-27 -41 -63 -71 -63 -34 0 -57 33 -39 56 11 12 16 11 41 -3 34 -20 46 -12 31
22 -19 40 -73 34 -147 -16 -55 -37 -64 -41 -112 -37 -38 3 -65 14 -105 40 -29
20 -62 39 -74 42 -24 7 -74 -27 -74 -50 0 -16 26 -19 35 -4 10 15 45 12 51 -5
8 -21 -14 -45 -41 -45 -33 0 -75 37 -75 66 0 33 51 84 83 84 14 0 55 -11 91
-25z"/>
<path d="M1945 1330 c-3 -5 -17 -10 -30 -10 -13 0 -36 -11 -51 -25 -29 -27
-40 -30 -49 -15 -8 14 -34 -11 -28 -27 3 -8 -4 -13 -20 -13 -16 0 -26 -7 -30
-20 -6 -23 -3 -24 24 -10 14 8 19 7 19 -3 0 -7 -10 -19 -22 -26 -22 -11 -23
-17 -21 -112 1 -90 4 -103 22 -116 27 -19 28 -37 1 -23 -19 10 -20 8 -20 -70
0 -79 0 -80 -26 -80 l-25 0 2 96 2 95 -39 26 c-22 14 -33 20 -26 12 8 -9 12
-48 12 -121 0 -99 -2 -108 -19 -108 -17 0 -19 12 -26 116 -5 83 -4 119 4 124
7 4 -9 19 -41 39 -29 18 -48 27 -41 20 10 -10 9 -15 -5 -25 -26 -20 -32 -17
-32 17 0 21 4 28 13 24 16 -8 -24 24 -43 35 -13 7 -14 -1 -12 -52 3 -46 0 -64
-14 -79 -37 -41 -45 -26 -43 77 2 87 0 96 -20 110 -26 18 -18 39 9 24 15 -8
17 -6 13 10 -3 13 -14 20 -29 20 -24 0 -35 19 -11 21 6 0 1 4 -11 10 -13 5
-28 6 -34 3 -5 -3 -22 6 -37 20 -18 17 -34 24 -45 20 -9 -3 -30 -1 -46 6 -36
15 -60 1 -60 -36 0 -14 -6 -33 -12 -44 -10 -16 -9 -29 6 -72 17 -49 17 -51 0
-61 -10 -6 -37 -28 -59 -50 -36 -35 -36 -36 -5 -12 38 31 52 19 25 -21 -12
-19 -23 -25 -41 -21 -24 4 -33 -6 -14 -18 6 -4 22 0 35 9 21 14 24 14 29 0 5
-13 10 -13 36 3 22 12 33 14 38 7 4 -6 17 -14 28 -18 23 -7 39 -42 23 -51 -27
-17 34 -55 87 -55 36 0 66 -35 62 -73 l-3 -32 214 -3 c219 -2 247 2 219 35
-15 18 15 61 47 68 14 3 37 8 52 11 42 9 53 22 46 55 -4 22 -1 30 13 36 12 5
-18 10 -76 13 l-95 5 0 30 c0 29 2 30 48 33 28 2 55 -2 63 -9 11 -9 18 -9 26
-1 7 7 25 12 41 12 28 0 29 -2 25 -39 -2 -22 0 -37 4 -35 5 3 8 12 8 20 0 12
7 11 31 -7 29 -20 32 -21 41 -6 8 16 11 16 34 1 59 -39 38 35 -23 82 -23 18
-47 34 -53 36 -7 2 -3 21 11 55 21 51 21 53 3 80 -10 16 -17 39 -15 52 4 34
-47 59 -64 31z m-708 -55 c8 -21 -23 -52 -59 -60 -55 -12 -62 32 -9 60 34 19
60 19 68 0z m729 -18 c31 -27 28 -57 -5 -57 -29 0 -76 43 -68 63 9 24 41 21
73 -6z m-698 -79 c2 -19 -2 -28 -18 -33 -24 -8 -50 10 -50 35 0 24 10 31 40
28 19 -2 26 -10 28 -30z m643 -14 c9 -11 10 -20 2 -32 -15 -24 -44 -27 -59 -7
-28 38 27 75 57 39z m173 -119 c26 -24 37 -62 14 -49 -26 15 -58 48 -58 61 0
20 14 16 44 -12z m-959 -14 c-3 -12 -15 -26 -26 -31 -16 -9 -19 -7 -19 9 0 11
10 27 22 35 26 18 32 15 23 -13z m101 18 c4 -8 9 -8 17 0 6 6 35 11 64 11 52
0 53 0 53 -30 l0 -30 -100 0 -100 0 0 30 c0 27 3 30 29 30 17 0 33 -5 37 -11z
m824 -41 c0 -15 -27 -8 -44 11 -27 30 -9 47 20 20 13 -12 24 -26 24 -31z
m-520 -108 l0 -120 -25 0 -25 0 0 110 c0 93 3 110 18 119 9 6 20 11 25 11 4 0
7 -54 7 -120z m-90 -30 c0 -89 0 -90 -25 -90 -25 0 -25 1 -25 80 0 65 3 81 18
89 9 6 20 11 25 11 4 0 7 -40 7 -90z"/>
<path d="M1782 1321 c-11 -6 -9 -9 6 -13 15 -4 19 -2 15 8 -6 16 -4 16 -21 5z"/>
<path d="M1316 1311 c-4 -5 3 -7 14 -4 23 6 26 13 6 13 -8 0 -17 -4 -20 -9z"/>
<path d="M1438 1210 c-3 -34 0 -43 20 -56 l23 -15 -3 53 c-2 39 -7 54 -19 56
-13 2 -18 -7 -21 -38z"/>
<path d="M1528 1179 c-3 -62 -1 -72 18 -84 17 -11 23 -10 45 6 14 11 18 19 10
19 -10 0 -12 11 -7 49 8 63 1 81 -34 81 -28 0 -28 -1 -32 -71z"/>
<path d="M1647 1243 c-8 -8 -9 -103 -2 -103 3 0 16 7 28 15 19 12 22 22 19 55
-3 30 -9 40 -21 40 -10 0 -21 -3 -24 -7z"/>
<path d="M1673 1127 c-27 -18 -33 -29 -33 -58 0 -28 6 -41 25 -53 l25 -16 0
63 c0 36 5 68 12 75 18 18 7 14 -29 -11z"/>
<path d="M1613 739 c-50 -18 -60 -113 -18 -155 15 -15 32 -23 41 -20 9 3 20 6
25 6 4 0 15 13 24 30 39 75 -6 164 -72 139z m42 -84 c0 -53 -2 -60 -20 -60
-15 0 -22 9 -28 35 -11 45 6 93 31 88 14 -3 17 -14 17 -63z"/>
<path d="M1328 719 c-34 -25 -40 -56 -8 -39 19 10 20 8 20 -50 0 -47 3 -60 15
-60 12 0 15 16 15 85 0 47 -3 85 -7 85 -5 0 -20 -10 -35 -21z"/>
<path d="M1442 728 c-31 -31 -3 -98 40 -98 l21 0 -21 -23 c-27 -29 -28 -37 -3
-37 47 0 86 113 52 154 -16 19 -72 21 -89 4z m66 -42 c-4 -25 -36 -34 -44 -12
-8 21 13 46 32 39 8 -3 14 -15 12 -27z"/>
<path d="M1766 689 c-58 -64 -59 -79 -6 -79 33 0 40 -3 40 -20 0 -11 7 -20 15
-20 8 0 15 8 15 18 0 10 5 23 11 29 8 8 8 13 0 17 -6 4 -11 29 -11 57 0 27 -4
49 -9 49 -5 0 -30 -23 -55 -51z m34 -24 c0 -18 -5 -25 -20 -25 -20 0 -20 1 -4
25 9 14 18 25 20 25 2 0 4 -11 4 -25z"/>
<path d="M773 2529 c-53 -40 -65 -53 -40 -43 16 6 100 -104 91 -118 -9 -15 30
8 46 26 10 13 10 16 -3 16 -18 0 -49 39 -41 52 3 5 15 6 26 2 17 -5 18 -3 9
14 -15 28 -31 37 -31 18 0 -24 -22 -31 -37 -11 -18 26 -16 38 7 53 15 9 26 10
40 2 22 -12 27 -1 8 18 -17 17 -17 17 -75 -29z"/>
<path d="M626 2399 c-20 -16 -26 -29 -26 -60 0 -94 115 -124 158 -42 19 35 14
63 -17 94 -35 35 -77 38 -115 8z m78 -30 c41 -35 53 -64 36 -84 -19 -23 -46
-18 -85 16 -49 44 -48 95 2 98 7 1 28 -13 47 -30z"/>
<path d="M2452 2409 c4 -20 -90 -102 -109 -95 -10 4 -11 1 -4 -12 13 -24 54
-60 46 -41 -3 9 5 25 19 38 22 21 26 22 32 8 3 -9 -1 -26 -10 -39 -9 -12 -16
-31 -16 -41 0 -23 28 -34 43 -17 9 10 9 11 0 6 -16 -9 -16 -9 0 34 10 29 17
35 42 35 47 0 45 39 -5 95 -22 25 -39 38 -38 29z m52 -84 c-9 -22 -36 -27 -53
-10 -15 15 -14 18 9 35 22 17 26 18 37 4 6 -9 9 -22 7 -29z"/>
<path d="M2586 2247 c8 -21 -106 -90 -123 -75 -7 6 -13 7 -13 3 0 -11 72 -125
79 -125 3 1 17 7 31 15 l25 14 -32 1 c-21 0 -37 7 -48 23 -15 21 -14 23 6 40
30 24 42 21 37 -8 -6 -30 -5 -30 28 -8 26 16 26 17 5 25 -12 4 -21 11 -21 16
0 8 50 36 55 30 19 -24 23 -47 9 -66 -17 -25 -7 -29 21 -8 17 12 17 16 -14 69
-30 53 -57 85 -45 54z"/>
<path d="M477 2204 c-16 -31 -16 -32 3 -27 11 3 39 -6 65 -21 50 -30 61 -67
25 -86 -17 -9 -30 -6 -70 16 -27 15 -51 34 -53 43 -2 11 -8 7 -20 -16 -21 -39
-21 -44 -3 -37 8 3 35 -6 60 -21 59 -34 91 -28 112 21 19 44 9 64 -50 95 -27
14 -46 32 -48 44 -3 17 -6 16 -21 -11z"/>
<path d="M2621 2018 c-44 -46 -60 -69 -50 -72 8 -3 51 -7 97 -8 86 -3 94 2 67
38 -13 17 -14 17 -15 2 0 -15 -9 -18 -52 -18 l-52 0 39 40 c29 30 42 37 52 29
10 -9 11 -5 2 20 -6 17 -14 32 -17 34 -4 2 -36 -28 -71 -65z"/>
<path d="M443 1973 c-47 -2 -83 -8 -83 -14 0 -19 129 -135 135 -121 8 22 6 34
-5 27 -6 -4 -17 -2 -25 5 -20 16 0 70 26 70 10 0 19 -6 19 -12 1 -17 30 22 30
39 0 7 -3 12 -7 11 -5 -1 -45 -4 -90 -5z m11 -55 c-9 -32 -12 -33 -34 -13 -24
21 -18 35 16 35 22 0 24 -3 18 -22z"/>
<path d="M2761 1888 c-1 -12 -19 -21 -68 -32 -41 -9 -69 -11 -71 -6 -2 6 -7
10 -12 10 -4 0 0 -30 9 -67 15 -61 20 -68 44 -71 32 -4 37 15 5 20 -14 2 -26
14 -32 30 -11 33 -11 34 32 43 25 5 32 3 32 -9 0 -8 -8 -20 -17 -25 -17 -10
-16 -10 2 -10 11 0 29 4 40 9 18 7 19 8 3 15 -28 11 -21 32 11 37 25 4 31 0
36 -20 4 -16 0 -31 -11 -43 -13 -15 -14 -19 -3 -19 32 1 35 14 18 85 -9 39
-17 62 -18 53z"/>
<path d="M316 1808 c-19 -87 -23 -118 -15 -118 5 0 9 4 9 9 0 12 131 -14 139
-28 6 -9 31 92 31 127 0 5 -15 12 -32 14 -32 5 -32 5 -10 -10 15 -10 22 -24
22 -48 0 -29 -4 -34 -22 -34 -13 0 -29 4 -37 9 -17 11 -6 31 17 31 15 0 15 2
2 10 -8 5 -25 10 -38 10 -20 0 -21 -2 -10 -20 16 -24 10 -30 -25 -23 -23 5
-28 10 -25 32 2 15 13 30 28 38 14 7 20 13 13 13 -6 0 -18 3 -27 6 -10 4 -17
-2 -20 -18z"/>
<path d="M2798 1688 c-6 -15 -20 -18 -71 -18 -36 0 -68 5 -75 12 -9 9 -12 8
-12 -4 0 -29 12 -51 20 -37 4 6 32 14 61 16 l54 5 -65 -61 -65 -61 73 2 c39 0
75 -2 79 -5 13 -14 23 -6 23 18 0 24 -15 35 -22 17 -1 -5 -23 -12 -48 -15
l-45 -7 53 50 c43 40 53 55 50 77 -2 22 -4 24 -10 11z"/>
<path d="M425 1628 c3 -8 -9 -19 -30 -29 -31 -15 -34 -15 -38 3 -6 21 -40 24
-55 6 -5 -7 -13 -36 -17 -63 l-6 -51 72 4 c61 4 75 2 86 -14 11 -16 13 -12 13
32 -1 38 -3 45 -11 32 -6 -11 -22 -18 -40 -18 -45 0 -35 32 14 43 33 8 38 13
35 35 -2 14 -9 27 -16 30 -7 2 -10 -2 -7 -10z m-65 -78 c0 -22 -3 -23 -37 -14
-25 7 -32 39 -10 47 20 7 47 -12 47 -33z"/>
<path d="M2806 1471 c-4 -6 -31 -8 -70 -4 -58 5 -64 4 -80 -18 -21 -31 -21
-72 2 -91 9 -9 41 -19 70 -23 31 -4 56 -13 61 -22 6 -12 9 -9 13 14 l4 29 -52
-4 c-66 -5 -96 10 -92 46 3 26 6 27 63 30 45 2 62 -1 71 -13 10 -13 13 -10 18
21 7 37 3 54 -8 35z"/>
<path d="M290 1403 c0 -32 14 -45 22 -22 5 16 99 29 121 18 18 -10 24 -54 8
-64 -5 -3 -33 -10 -62 -15 -39 -8 -56 -7 -67 2 -13 11 -15 10 -9 -5 4 -10 7
-30 7 -45 0 -22 2 -24 13 -10 6 9 35 19 62 23 28 4 58 14 68 22 23 22 22 68
-4 94 -18 18 -28 20 -81 14 -46 -6 -62 -4 -69 6 -6 10 -9 4 -9 -18z"/>
<path d="M2626 1289 c-38 -118 -38 -121 -25 -130 8 -5 22 -9 32 -9 15 0 15 2
-4 21 -11 11 -18 27 -15 36 3 8 6 19 6 24 0 11 41 12 59 0 17 -11 6 -31 -17
-31 -23 0 -3 -16 31 -24 25 -6 27 -5 15 13 -16 26 -7 34 26 25 36 -9 34 -40
-5 -63 l-30 -18 26 -5 c23 -5 26 -1 41 51 9 31 19 63 22 71 4 11 2 12 -7 4
-16 -15 -121 10 -138 33 -10 13 -13 14 -17 2z"/>
<path d="M433 1243 c-7 -2 -13 -16 -13 -31 0 -20 -3 -23 -12 -14 -19 19 -56
14 -63 -8 -3 -11 2 -44 11 -74 13 -43 20 -52 28 -42 14 18 113 49 131 42 18
-7 18 -7 -1 51 -24 71 -45 91 -81 76z m61 -55 c13 -21 0 -36 -34 -40 -25 -3
-37 19 -26 48 8 20 46 14 60 -8z m-74 -29 c14 -25 12 -27 -28 -35 -29 -6 -32
-4 -32 19 0 39 42 50 60 16z"/>
<path d="M522 904 c-27 -19 -28 -45 -2 -69 17 -15 24 -16 45 -7 32 15 35 66 6
82 -25 13 -22 13 -49 -6z"/>
<path d="M2540 902 c-45 -36 -1 -99 50 -72 24 13 26 52 4 74 -20 20 -27 20
-54 -2z"/>
<path d="M796 703 c6 -24 -72 -114 -91 -106 -25 9 -17 -3 20 -31 23 -18 33
-21 29 -11 -4 9 1 24 10 34 16 18 18 18 52 0 42 -21 62 -16 70 17 7 27 -3 42
-57 85 -28 22 -36 25 -33 12z m62 -77 c-4 -25 -33 -33 -54 -15 -13 10 -12 15
7 35 17 19 25 21 36 12 8 -6 13 -21 11 -32z"/>
<path d="M2255 661 c-21 -12 -31 -26 -33 -49 -4 -44 24 -58 75 -37 43 18 63
14 63 -14 0 -26 -34 -45 -66 -37 -25 7 -31 -3 -13 -21 8 -8 21 -6 46 9 44 26
59 57 43 88 -12 23 -16 23 -107 4 -25 -5 -33 -3 -33 7 0 30 18 41 54 37 38 -4
44 0 24 20 -15 15 -16 15 -53 -7z"/>
<path d="M925 600 c9 -15 -53 -118 -73 -122 -13 -3 -9 -8 16 -21 30 -17 32
-17 32 0 0 10 7 26 14 36 12 16 17 16 35 5 12 -7 21 -17 21 -21 0 -20 -22 -47
-38 -47 -12 0 -8 -6 13 -20 33 -22 50 -26 40 -10 -10 16 54 120 73 120 11 0 5
8 -16 20 -39 24 -43 25 -36 5 3 -8 -1 -23 -9 -35 -14 -20 -15 -20 -37 -2 -19
16 -21 22 -11 40 6 12 17 22 24 22 7 0 1 9 -13 20 -27 21 -45 26 -35 10z"/>
<path d="M2102 557 c-44 -26 -49 -33 -34 -38 23 -9 75 -97 68 -116 -8 -19 0
-17 60 19 58 35 62 43 39 74 -13 18 -14 18 -8 -4 6 -25 -20 -62 -44 -62 -8 0
-19 12 -26 28 -7 15 -21 40 -31 56 -19 28 -19 29 -1 42 22 16 41 18 50 4 12
-20 26 -10 15 10 -14 26 -24 24 -88 -13z"/>
<path d="M2158 517 c-4 -19 0 -27 14 -30 21 -6 22 0 4 32 l-13 24 -5 -26z"/>
<path d="M2010 505 c-14 -8 -19 -14 -13 -15 13 0 43 -50 43 -70 0 -6 -25 3
-55 20 -43 24 -62 30 -83 25 -25 -7 -25 -8 -7 -15 23 -9 62 -111 50 -131 -6
-9 -3 -11 9 -6 10 4 22 7 27 7 5 0 9 5 9 10 0 6 -6 10 -14 10 -8 0 -21 20 -29
45 -9 25 -13 45 -10 45 3 0 31 -16 63 -36 32 -20 63 -34 69 -33 5 2 -1 30 -15
62 -14 33 -22 67 -19 78 7 22 7 22 -25 4z"/>
<path d="M1096 495 c8 -19 -41 -125 -58 -125 -16 -1 6 -14 39 -24 18 -6 22 -4
17 8 -8 20 41 126 58 126 16 1 -32 29 -49 30 -7 0 -10 -7 -7 -15z"/>
<path d="M1194 462 c11 -19 -24 -130 -43 -135 -9 -2 15 -13 53 -25 38 -12 70
-21 72 -20 1 2 6 16 10 32 l7 29 -22 -22 c-16 -16 -28 -20 -44 -15 -31 9 -31
7 -10 76 13 43 24 62 34 60 28 -7 -6 17 -35 24 -21 5 -27 4 -22 -4z"/>
<path d="M1813 443 c-21 -4 -21 -6 -9 -26 7 -12 19 -44 25 -71 10 -40 10 -51
-1 -57 -16 -11 15 -10 52 0 20 5 22 8 9 13 -19 7 -44 98 -36 128 5 20 2 21
-40 13z"/>
<path d="M1348 421 c17 -10 6 -115 -14 -135 -11 -11 -8 -15 18 -20 42 -8 56
-7 39 3 -17 11 -6 114 14 135 12 12 11 15 -8 20 -34 9 -65 7 -49 -3z"/>
<path d="M1636 413 c-13 -4 -15 -7 -7 -13 17 -10 31 -126 17 -140 -12 -12 30
-13 59 0 17 7 17 9 3 9 -13 1 -18 9 -18 29 0 23 6 30 32 37 40 13 57 38 42 63
-11 17 -86 26 -128 15z m89 -38 c0 -23 -5 -31 -22 -33 -20 -3 -23 1 -23 33 0
32 3 36 23 33 17 -2 22 -10 22 -33z"/>
<path d="M1458 403 c8 -3 12 -27 12 -68 0 -50 -4 -66 -17 -74 -14 -8 -6 -10
32 -10 28 1 42 3 33 6 -12 3 -18 14 -18 34 0 24 4 29 26 29 38 0 64 18 64 43
0 37 -19 47 -84 46 -34 0 -55 -3 -48 -6z m97 -32 c0 -29 -29 -51 -46 -34 -7 7
-9 23 -5 38 9 35 51 32 51 -4z"/>
</g>
</svg>
