<?xml version="1.0" encoding="UTF-8"?>
<!DOCTYPE svg PUBLIC "-//W3C//DTD SVG 1.1//EN" "http://www.w3.org/Graphics/SVG/1.1/DTD/svg11.dtd">
<!-- Creator: CorelDRAW 2017 -->
<svg xmlns="http://www.w3.org/2000/svg" xml:space="preserve" width="26.4582mm" height="26.4582mm" version="1.1" style="shape-rendering:geometricPrecision; text-rendering:geometricPrecision; image-rendering:optimizeQuality; fill-rule:evenodd; clip-rule:evenodd"
viewBox="0 0 2645.82 2645.82"
 xmlns:xlink="http://www.w3.org/1999/xlink">
 <defs>
  <style type="text/css">
    .str0 {stroke:black;stroke-width:20;stroke-miterlimit:22.9256}
    .fil0 {fill:black}
    .fil2 {fill:#004AAC}
    .fil3 {fill:#9B0000}
    .fil5 {fill:#C4BB6C}
    .fil4 {fill:#FFDC57}
    .fil1 {fill:white}
  </style>
 </defs>
 <g id="Layer_x0020_1">
  <metadata id="CorelCorpID_0Corel-Layer"/>
  <circle class="fil0 str0" cx="1322.9" cy="1322.91" r="1220.38"/>
  <circle class="fil1" cx="1322.9" cy="1322.91" r="1148.53"/>
  <g id="_1977932229488">
   <path class="fil2" d="M503.93 1538.87c13.52,11.8 24.91,25.09 43.79,40.56 4.83,3.96 10.7,8.4 15.93,12.25 20.88,15.37 44.45,29.46 71.66,41.03 60.82,25.87 123.11,32.97 195.93,27.48 101.81,-7.67 189.18,-41.09 255.15,-110.61 5.02,-5.28 8.64,-10.03 13.29,-14.86 4.41,-4.58 22.27,-30.29 25.44,-32.25 0.91,-3.44 7.26,-12.93 9.39,-16.11 -6.8,-3.59 -13.48,-6.45 -20.54,-10.32 -46.69,-25.51 -99.87,-49.18 -147.17,-74.2l-25.1 23.2c-18.15,15.2 -29.9,28.28 -57.28,39.31 -32.22,12.99 -90.3,16.15 -123.97,6.99 -17.61,-4.78 -52.77,-20.26 -63.32,-32.86 -24.06,-16.97 -42.67,-57.17 -40.99,-100.7l488.77 -0.44c5.43,-61.23 -4.23,-133.47 -26.73,-190.17 -10.81,-27.25 -16.67,-31.48 -24.42,-48.55 -2.28,-5.3 -15.54,-21.57 -19.63,-26.83 -47.97,-61.7 -132.06,-105.95 -212.37,-117.68 -132.42,-19.34 -239.43,13.38 -313.16,76.49l-12.8 11.35c-4.3,4.28 -7.59,6.16 -12.09,10.72 -12.84,12.99 -22.47,22.59 -34.12,36.98 -36.41,45.01 -62.76,99.01 -72.29,163.84 -4.17,28.4 -3.88,59.35 -1.87,89.27 0.87,13.08 3.75,29.25 6.36,40.59 10.81,47.03 30.98,90.74 60.08,129.09l22.06 26.43z"/>
   <path class="fil2" d="M1239.16 1635.96l-90.47 -0.01 3.44 -26.12 -29.7 -0.04c-10.44,15.61 -50.57,49.19 -70.54,63.63 -56.45,40.84 -119.94,66.91 -193.35,77.66 -78.21,11.46 -161.3,-1.51 -232.91,-32.22l-30.73 -14.89c-57.75,-35.14 -58.73,-33.68 -113.45,-87.79 -4.49,-4.44 -6.32,-7.65 -10.73,-12.08l-20.27 -25.35c-10.54,-13.97 -27.38,-40.63 -35.08,-56.15 -70.51,-142.18 -64.56,-296.13 16.68,-428.78 9.63,-15.72 35.82,-51.21 48.73,-63.96 4.69,-4.64 6.79,-6.77 10.87,-11.94 6.08,-7.71 38.48,-34.19 48.31,-41.58 45.6,-34.26 97.18,-58.94 153.68,-73.06 77.65,-19.41 163.18,-17.07 237.77,8.02 52.69,17.71 103.11,43.69 145.11,80.29 19.98,17.41 21.3,17.45 40.22,38.93l53.74 71.04c3.05,5.06 5.73,9.29 8.31,14.5 8.85,17.83 14.45,27.47 21.86,46.56 2.08,5.35 3.85,12.17 6.75,16.5 3.75,2.09 109.4,2.1 113.15,0l-13.81 -43.43c-2.67,-7.47 -5.07,-14.27 -8.16,-21.36 -24.55,-56.35 -39.44,-78.73 -75.91,-128.02 -13.4,-18.11 -24.18,-26.8 -34.3,-39.49 -17.96,-22.52 -83.45,-71.98 -105.4,-85.12 -3.66,-2.19 -5.75,-3.1 -9.42,-5.33l-47.33 -25.12c-91.88,-39.35 -145.26,-49.2 -244.57,-49.26 -35.14,-0.02 -75.48,6.12 -103.56,13.16l-45.36 12.34c-33.24,9.1 -91.07,36.87 -119.96,55.79 -27.27,17.86 -51.07,34.41 -74.9,56.58 -12.1,11.26 -27.16,23.45 -37.45,36.35 -8.11,10.16 -18.46,20.54 -27.02,32.01 -20.36,27.29 -36.16,49.12 -51.92,79.56 -1.87,3.61 -3.51,5.75 -5.4,9.35 -36.65,69.72 -57.67,158.03 -57.67,236.16 0,60.08 2.85,96 19.05,155.36 16.41,60.17 56.91,144.42 100.05,193.77 29.13,33.32 50.48,58.61 87.89,86.53 82.4,61.48 164.19,98.23 269.67,111.35 44.06,5.48 96.58,4.19 138.76,-1.35 34.5,-4.53 65.71,-13.06 95.82,-22.25 50.62,-15.43 111.01,-48.72 153.94,-80.85 11.08,-8.29 21.27,-16.73 31.99,-25.7 16.76,-14.04 75.61,-74.69 83.58,-94.19z"/>
   <path class="fil3" d="M1452.49 1533.32c-1.44,6.66 -20.59,45.16 -26.17,57.08 -3.06,6.54 -6.76,12.39 -9.09,19.39l23.17 0 14.76 0 114.29 0 29.36 -66.98 118.67 -0.06 2.08 26.79c-0.35,13.32 2.59,26.43 2.59,40.25l24.15 0 136.92 0 -65.01 -403.83c-7.65,-31.02 6.69,-26.84 -27.63,-26.84l-167.71 0 -36.69 76.01c-22.07,45.98 -46.7,100.3 -69.3,145.37 -7.3,14.56 -14.15,29.75 -21.47,44.27l-21.08 44.66c-3.22,7.55 -6.98,14.11 -10.69,21.51l-8.94 19.24c-1.6,2.67 -0.67,1.36 -2.21,3.14z"/>
   <path class="fil3" d="M1171.64 1291.82l-12.79 81.84c-1.58,10.97 -4,22.58 -5.49,33.62l-16.17 100.55 -9.36 61.71 -5.4 40.25 29.7 0.04 105.01 0.01 152.28 -0.06c2.49,-24.22 10.38,-64.1 14.46,-91.71 0.34,-2.33 0.57,-4.77 0.97,-6.8l2.14 -6.48c0,-5.61 2.37,-23.03 4.02,-26.48l-101.96 0 -11.8 -0.02 -19.51 0 35.9 -226.85 7.23 -45.48c0.72,-4.43 4.19,-20.17 3.95,-23.18 -0.4,-4.98 -2.7,-3.82 -8.94,-3.77 -5.11,0.04 -10.21,0.11 -15.33,0.11 -3.75,2.1 -109.4,2.09 -113.15,0l-17.89 0c-0.32,3.95 -1.8,10.44 -2.29,13.81l-15.58 98.89z"/>
   <path class="fil3" d="M1947.55 1628.42c37.43,12.96 60.4,4.57 86.45,-20.68l3.74 -3.53c-1.86,22.23 -15.49,44.91 -35.18,45.84l-1.34 1.34 -2.69 0 -1.93 0.75c-0.23,0.07 -0.72,0.24 -1.02,0.32l-6.77 1.3c-3.82,0.49 -7.58,0.48 -11.37,-0.04 -52.35,-7.2 -43.21,-13.13 -58.07,-17.09 -9.07,17.15 -20.44,48.6 -29.51,65.74 6.69,3.54 13.13,6.34 20.12,9.08 36.97,8.86 69.93,17.68 112.57,6.88 37.05,-9.39 62.17,-26.4 78.08,-49.38 21.01,-30.34 21.99,-58.41 28.37,-98.88 2.19,-13.87 15.26,-105.74 18.46,-109.96 0,-7.88 1.34,-9.04 1.34,-16.68l-72.45 0 -14.76 30.86c-1.67,-1.12 -11.19,-9.5 -12.82,-11.34 -2.09,-2.35 -2.96,-4.71 -4.97,-7.1 -2.34,-2.77 -4.31,-3.94 -7.28,-6.13 -28.26,-20.8 -63.38,-9.91 -86.62,16.19 -4.39,4.94 -6.89,9.8 -10.4,15.08 -11.09,16.69 -21.57,49.55 -21.47,77.82 0.1,29.34 3.39,54.15 29.52,69.61z"/>
   <path class="fil4" d="M697.13 1438.48c-8.42,-18.83 -13.42,-37.53 -13.42,-64.82l5.37 0 469.77 0 12.79 -81.84 -9.52 -58.46c-7.58,-34.77 -21.18,-65.81 -38.4,-95.77 -4.4,-7.66 -23.35,-35.4 -29.96,-38.97 7.75,17.07 13.61,21.3 24.42,48.55 22.5,56.7 32.16,128.94 26.73,190.17l-488.77 0.44c-1.68,43.53 16.93,83.73 40.99,100.7z"/>
   <path class="fil4" d="M503.93 1538.87c1.18,4.13 21.36,28.59 24.46,31.71 7.13,7.16 13.68,15.92 20.21,21.38 14.71,12.29 22.34,20.12 38.71,32.4 59.37,44.53 135.89,72.74 213.12,72.64 9.4,-0.01 18.79,-0.01 28.18,0 15.61,0.02 38.26,-2.22 52.56,-3.79 51.27,-5.59 87.36,-15.89 133.91,-36.47 6.71,-2.97 11.4,-6.37 18.37,-9.82 13.58,-6.71 46.88,-29.58 58.49,-40.79 2.83,-2.74 4.49,-4.88 7.48,-7.27 12.38,-9.87 23.48,-25.75 28.41,-29.32l9.36 -61.71c-4.61,-1.07 -8.26,-3.35 -12.07,-5.36 -3.17,1.96 -21.03,27.67 -25.44,32.25 -4.65,4.83 -8.27,9.58 -13.29,14.86 -65.97,69.52 -153.34,102.94 -255.15,110.61 -72.82,5.49 -135.11,-1.61 -195.93,-27.48 -27.21,-11.57 -50.78,-25.66 -71.66,-41.03 -5.23,-3.85 -11.1,-8.29 -15.93,-12.25 -18.88,-15.47 -30.27,-28.76 -43.79,-40.56z"/>
   <path class="fil3" d="M2268.14 1460.87l-27.58 177.1 18.25 -0.16 66.92 -0.12 28.04 -176.82c1.31,-3.86 2.88,-12.91 2.98,-17.44l-5.36 0.02 -37.57 -0.01 -42.93 -0.01c-1.13,4.84 -2.64,11.64 -2.75,17.44z"/>
   <path class="fil3" d="M2164.26 1460.87l-27.47 177.1 18.72 -0.25 66.54 -0.06c4.94,-24.15 24.27,-168.76 28.71,-176.43 0,-6.83 0.89,-6.31 1.72,-12.41 0.69,-5.1 1.06,-5.24 -5.74,-5.39l-36.23 0.01 -44.27 -0.01c0,5.74 -1.29,13.57 -1.98,17.44z"/>
   <path class="fil4" d="M1746.3 1609.79c1.2,5.17 2.68,20.72 2.68,26.84l161 0c-0.16,-7.23 -2.93,-18.94 -4.21,-26.65 -1.41,-8.46 -2.66,-17.36 -4.22,-26.64l-26.26 -161.57c-5.97,-35.89 -11.54,-71.84 -17.44,-107.33 -3.05,-18.34 -5.68,-35.52 -8.82,-54.24 -1.54,-9.27 -3.04,-18.34 -4.41,-26.45l-4.4 -27.79 -22.01 0 65.01 403.83 -136.92 0z"/>
   <path class="fil4" d="M697.13 1208.64c5.12,-21.99 31.87,-49.14 53.18,-59.52 8.93,-4.35 19.02,-7.82 28.97,-9.93 32.39,-6.86 67.29,-6.36 98.09,7.27 11.86,5.25 29.21,24.45 32.71,25.25 -8.87,-20.7 -38.49,-51.14 -60.24,-60.81 -35.52,-15.8 -91.75,-15.13 -127.43,3.56 -6.27,3.28 -10.97,5.85 -15.87,9.7 -11.56,9.06 -5.57,4.8 -13.21,12.25 -17.92,17.45 -28.02,38.67 -30.97,72.11l34.77 0.12z"/>
   <path class="fil4" d="M1455.16 1609.79c-2.09,9.02 -9.97,17.82 -12.07,26.84l152.95 0c1.01,-4.37 5.01,-12.54 7.15,-17 2.63,-5.47 5.4,-11.79 7.42,-16.73l14.94 -33.36 94.01 0 -2.08 -26.79 -118.67 0.06 -29.36 66.98 -114.29 0z"/>
   <path class="fil4" d="M1909.98 1711.45c-1.4,3.02 -2.33,4.1 -2.68,8.36 13.92,3.24 35.01,20.18 88.52,20.16 20.08,-0.01 40.39,-3.4 57.91,-9.24 24.34,-8.11 37.48,-17.11 53.83,-33.37 10.75,-10.69 28.83,-39.29 29.23,-59.39l27.47 -177.1 -16.8 -0.76c-3.2,4.22 -16.27,96.09 -18.46,109.96 -6.38,40.47 -7.36,68.54 -28.37,98.88 -15.91,22.98 -41.03,39.99 -78.08,49.38 -42.64,10.8 -75.6,1.98 -112.57,-6.88z"/>
   <path class="fil4" d="M1257.14 1609.84c-2.66,5.73 -4.89,7.93 -8.52,13.43 -1.52,2.31 -2.58,3.98 -4.33,6.52 -3.17,4.6 -3.05,2.12 -2.46,6.84l193.21 0c2.74,-5.73 3.63,-19.4 5.36,-26.84l-23.17 0c2.33,-7 6.03,-12.85 9.09,-19.39 5.58,-11.92 24.73,-50.42 26.17,-57.08 0.17,-8.73 3.81,-19.08 4.01,-28.17l-29.51 -0.36 -2.14 6.48c-0.4,2.03 -0.63,4.47 -0.97,6.8 -4.08,27.61 -11.97,67.49 -14.46,91.71l-152.28 0.06z"/>
   <path class="fil3" d="M2191.73 1425.18c44.75,14.01 85.03,-17.73 72.06,-64.93 -13.64,-28.28 -52.99,-25.54 -74.37,-7.68 -20.73,17.32 -27.16,58.93 2.31,72.61z"/>
   <path class="fil3" d="M2278.94 1372.32c-0.65,7.14 -2.95,11.49 -2.88,20.14 0.08,9.67 2.42,12.44 4.23,20.11 5.78,6.69 7.54,9.29 16.09,13.27 45.76,12.18 84.7,-19.77 71.18,-65.59 -10.42,-18.6 -24.48,-23.25 -48.02,-19.78 -20.85,3.08 -31.92,15.37 -40.6,31.85z"/>
   <path class="fil4" d="M2258.81 1637.81c-0.1,4.91 -1.69,11.99 -2.68,16.26l87.21 0c0,-8.83 12.86,-86.63 14.56,-96.8l11.32 -71.86c0.95,-6.56 3.63,-17.08 3.63,-24.54l-19.08 0 -28.04 176.82 -66.92 0.12z"/>
   <path class="fil4" d="M2155.51 1637.72c-0.94,4.39 -2.58,11.46 -2.69,16.35l85.87 0c1.03,-4.41 2.89,-11.44 1.87,-16.1l27.58 -177.1 -17.38 0.36c-4.44,7.67 -23.77,152.28 -28.71,176.43l-66.54 0.06z"/>
   <path class="fil4" d="M1673.85 1442.34l23.69 -55.72c1.61,-3.62 2.35,-5.84 4.03,-9.39l3.51 -7.22c0.12,-0.23 0.39,-0.68 0.49,-0.86 0.09,-0.18 0.29,-0.58 0.48,-0.85 0.09,-11.46 -1.69,-24.62 -2.64,-36.22 -0.73,-8.94 -0.54,-30.25 -4.07,-36.13l-63.94 146.52 38.45 -0.13z"/>
   <path class="fil4" d="M1333.64 1251.44c1.42,1.8 0.52,0.14 1.54,3.1 6.35,18.52 3.91,101.24 2.46,117.11 -1.73,19.09 -4.44,38.07 -8.03,56.17 -3.5,17.65 -9.09,34.44 -12.36,50.47l11.8 0.02c0,-8.68 19.27,-123.53 21.07,-135.89 3.37,-23.12 6.67,-44.25 10.55,-67.27 1.99,-11.79 3.58,-21.85 5.38,-33.53 1.85,-12.07 4.59,-23.27 4.59,-35.66l-29.77 0 -7.23 45.48z"/>
   <path class="fil5" d="M1317.25 1478.29c3.27,-16.03 8.86,-32.82 12.36,-50.47 3.59,-18.1 6.3,-37.08 8.03,-56.17 1.45,-15.87 3.89,-98.59 -2.46,-117.11 -1.02,-2.96 -0.12,-1.3 -1.54,-3.1l-35.9 226.85 19.51 0z"/>
   <path class="fil5" d="M1239.16 1635.96l2.67 0.67c-0.59,-4.72 -0.71,-2.24 2.46,-6.84 1.75,-2.54 2.81,-4.21 4.33,-6.52 3.63,-5.5 5.86,-7.7 8.52,-13.43l-105.01 -0.01 -3.44 26.12 90.47 0.01z"/>
   <path class="fil4" d="M2296.38 1425.84c1.93,8.7 8.39,11.89 14.27,15.4 2.83,1.69 1.16,0.44 3.17,2.2l37.57 0.01c8.51,-5.99 25.71,-8.69 33.74,-36.05 5.7,-19.44 0.97,-37.03 -17.57,-47.15 13.52,45.82 -25.42,77.77 -71.18,65.59z"/>
   <path class="fil4" d="M2191.73 1425.18c2.91,10.1 13.7,14.7 18.78,18.26l36.23 -0.01 10.85 -5.25c8.15,-4.66 15.23,-12.4 19.54,-20.7l3.16 -4.91c-1.81,-7.67 -4.15,-10.44 -4.23,-20.11 -0.07,-8.65 2.23,-13 2.88,-20.14 -4.34,-2.9 -2.92,-3.39 -6.69,-6.72 -2.6,-2.31 -4.99,-3.79 -8.46,-5.35 12.97,47.2 -27.31,78.94 -72.06,64.93z"/>
   <path class="fil4" d="M1947.55 1628.42c1.22,4.84 4.35,6.71 7.68,9.92 3.34,3.21 6.93,5.78 11.08,7.7 9.55,4.42 18.1,5.33 32.22,5.35l2.69 0 1.34 -1.34c19.69,-0.93 33.32,-23.61 35.18,-45.84l-3.74 3.53c-26.05,25.25 -49.02,33.64 -86.45,20.68z"/>
   <path class="fil4" d="M2022.68 1567.07c-2.15,-9.91 1.04,-20.79 5.4,-28.36 2.45,-4.26 4.61,-6.93 9.03,-9.75 5.64,-3.58 6.48,-3.69 15.18,-3.69 -4.48,-24.88 -30.5,-19.2 -39.92,-4.96 -4.71,7.12 -7.69,17.55 -7.11,27.74 0.7,12.22 5.92,17.87 17.42,19.02z"/>
   <path class="fil1" d="M691.52 1209.1l233.25 -5.25c-36.13,-113.94 -209.2,-73.69 -233.25,5.25z"/>
   <polygon class="fil1" points="1706.05,1368.3 1673.85,1442.34 1719.23,1442.34 "/>
  </g>
 </g>
</svg>
