<?xml version="1.0" encoding="UTF-8"?>
<!DOCTYPE svg PUBLIC "-//W3C//DTD SVG 1.1//EN" "http://www.w3.org/Graphics/SVG/1.1/DTD/svg11.dtd">
<!-- Creator: CorelDRAW 2017 -->
<svg xmlns="http://www.w3.org/2000/svg" xml:space="preserve" width="26.4582mm" height="26.4582mm" version="1.1" style="shape-rendering:geometricPrecision; text-rendering:geometricPrecision; image-rendering:optimizeQuality; fill-rule:evenodd; clip-rule:evenodd"
viewBox="0 0 2645.82 2645.82"
 xmlns:xlink="http://www.w3.org/1999/xlink">
 <defs>
  <style type="text/css">
    .fil0 {fill:black}
    .fil3 {fill:#083289}
    .fil9 {fill:#151102}
    .fil4 {fill:#252525}
    .fil8 {fill:#8A5423}
    .fil5 {fill:#CD1226}
    .fil7 {fill:#E3BD14}
    .fil10 {fill:#E9C428}
    .fil6 {fill:#EDEDED}
    .fil2 {fill:#FBD016}
    .fil1 {fill:white}
  </style>
 </defs>
 <g id="Layer_x0020_1">
  <metadata id="CorelCorpID_0Corel-Layer"/>
  <g id="_1904287483552">
   <path class="fil0" d="M12.78 1309.8c0,66.44 7.95,105.26 27.02,162.95 30.27,91.57 101.26,207.62 141.75,303.7 60.42,143.38 67.84,315.59 167.2,439.83l40.13 42.84c8.37,7.4 11.52,11.25 20.99,18.32 134.19,100.2 299.64,99.02 445.71,163.5 63.81,28.18 124.1,62.92 184.96,96.72 77.67,43.13 177.46,95.38 271.46,95.38 64.38,0 105.32,-7.14 162.21,-29.94 9.85,-3.95 19.15,-7.24 27.79,-11.52 9.28,-4.59 19.15,-8.55 28.39,-13.1 8.34,-4.11 18.11,-8.6 26.07,-13.23l51.83 -28.96c9.56,-5.35 17.33,-9.52 26.45,-15.03 8.19,-4.96 16.57,-9.41 25.19,-14.12 62.72,-34.27 124.29,-68.36 194.05,-87.63 21.45,-5.92 40.37,-12.74 62.4,-18.39l126.65 -34.94c38.65,-10.68 81.6,-25.76 117.65,-43.93 73.69,-37.14 126.39,-79.46 171.94,-149.04 69.27,-105.8 95.19,-230.68 130.87,-353.88 18.05,-62.33 36.44,-121.2 63.28,-179.09 17.13,-36.93 36.69,-71.92 52,-109.59 34.21,-84.21 54.28,-118.32 54.28,-220.85 0,-126.33 -102.35,-298.61 -155.76,-409.78 -9.37,-19.49 -15.79,-38.41 -23.93,-59.04 -40.4,-102.4 -55.72,-229.18 -108.51,-336.94l-29.38 -51.41c-38.23,-57.35 -90.42,-102.5 -155.62,-130.43 -19.44,-8.32 -37.51,-15.49 -58.2,-22.59 -62.55,-21.47 -126.43,-33.07 -190.59,-51.79 -94.16,-27.47 -141.21,-48.98 -228.61,-96.74l-78.28 -44c-43.29,-26.32 -89.94,-47.22 -137.14,-65.93 -46.17,-18.3 -90.59,-27.31 -134.18,-28.38l-17.48 0c-66.5,1.58 -131.32,21.39 -197.71,54.59 -8.74,4.37 -17.47,8.75 -26.22,13.08 -9.65,4.79 -16.48,9.28 -26.94,14.55 -34.7,17.47 -69.23,38.82 -102.79,58.79 -17.66,10.51 -34.28,18.52 -52.94,27.85 -37.13,18.57 -74.85,33.8 -114.55,47.03 -61.14,20.38 -126.2,35.64 -187.24,55.14 -40.35,12.9 -79.48,25.93 -118.82,42.77 -36.2,15.5 -97.04,49.07 -120.74,82.33 -28.42,39.91 -55.92,81.8 -76.61,126.46 -4.47,9.64 -8.08,17.92 -11.95,27.35 -60.99,148.79 -45.91,212.87 -135.07,391.17 -51.52,103.06 -131.01,238.85 -131.01,355.92z"/>
   <path class="fil1" d="M1278.71 212.35c-164.1,6.34 -335.18,45.84 -462.86,110.01 -96.8,48.65 -137.64,72.37 -221.84,136.27 -28.57,21.68 -52.15,43.67 -78.05,66.1 -6.74,5.83 -10.57,11.59 -17.08,17.78l-36.5 35.55c-6.04,6.45 -10.12,12.8 -16.12,18.91 -73.95,75.35 -154.26,206.96 -197.03,305.1 -130.87,300.23 -121.19,646.34 22.92,938.74 49.18,99.78 104.01,177.81 174.15,256.02l52.47 54.61c6.66,6.23 11.54,13 18.24,18.81 113.53,98.6 202.84,163.05 350.32,223.99 462.44,191.1 974.96,56.66 1283.49,-260.9 211.67,-217.87 333.82,-506.94 322.51,-823.55 -9.07,-253.95 -102.55,-490.51 -255.19,-674.71 -37.98,-45.83 -64.24,-68.56 -104.61,-111.48 -32.97,-35.05 -121.83,-97.91 -161.11,-124.98 -179.71,-123.85 -446.12,-195.05 -673.71,-186.27z"/>
   <path class="fil0" d="M1262.58 457.6c-201.15,12.69 -372.96,86.13 -519.62,204.52l-59.4 54.17c-9.01,10.05 -19.69,17.61 -28.7,28.07 -74.33,86.24 -127.87,159.42 -172.8,272.69 -46.34,116.83 -69.95,246.21 -59.93,386.4 33.6,469.84 448.37,852.89 961.97,819.52 473.24,-30.74 873.49,-431.6 838.94,-943.76 -31.77,-470.86 -447.94,-853.94 -960.46,-821.61z"/>
   <path class="fil1" d="M1267.6 472.12c-166.18,10.7 -321.43,64.42 -450.4,152.91 -11.01,7.55 -20.59,14.91 -31.83,22.75 -31.83,22.18 -60.14,49.3 -88.28,75.49 -10.66,9.93 -17.89,18.63 -27.91,28.92 -5.02,5.17 -8.42,7.42 -13.06,13.07 -37.69,45.94 -45.13,52.41 -83.2,109.02 -167.89,249.57 -182.31,595.51 -41.01,861.83 22.8,42.98 95.39,156.42 135.91,191.68 19.48,16.96 35.39,37.58 56.42,54.96 10.37,8.56 18.33,16.74 29.3,25.26 10.54,8.19 19.57,15.53 30.64,23.94 312.23,237.11 755.21,237.25 1074.66,1.57 231.78,-171 368.75,-451.09 349.76,-746.92 -11.73,-182.81 -77.67,-342.69 -181.52,-475.73 -16.88,-21.62 -33.36,-39.92 -50.14,-59.05l-41.51 -41.4c-96.01,-83.36 -163.32,-130.1 -287.6,-179.72 -110.29,-44.04 -248.68,-67.05 -380.23,-58.58z"/>
   <path class="fil2" d="M1079.73 2126.71l53.94 13.49 0.23 -80.06 -30.44 16.28 -0.36 -24.02c11.74,-8.33 29.32,-16.24 40.96,-28.37 6,-6.26 4.65,-7.79 16.67,-6.36l0.09 128.87 72.76 10.53c0.85,-6.31 -0.34,-2.87 3.88,-6.82 4.33,-4.04 29.11,-15.72 37.09,-39.63 -93.77,12.59 -77.42,-111.84 -1.18,-94.02 30.69,7.18 41.94,41.69 36.06,76.8 -3.16,18.87 -18.22,43.2 -29.79,55.31 -5.53,5.79 -9.6,6.57 -15.1,12.39l91.56 0.07c-10.65,-10.19 -15.54,-13.58 -20.93,-33.8 -31.88,-119.84 90.35,-152.74 102.64,-58.93 5.68,43.43 -2.74,62.74 -20.77,88.61l105.64 -17.2 0.07 25.62 -0.26 -37.42 -68.75 -0.83c0,-26.58 6.83,-19.48 27.92,-47.27l35.43 -41.02c11.79,-12.33 11.95,-22.05 31.84,-22.16l0.05 88.54 15.23 0.81c0.01,24.99 5.05,18.86 -14.9,21.83l-0.59 37.44c0.28,-40.53 -6.02,-30.85 30.6,-42.35 10.86,-3.41 23.03,-9.04 34.04,-10.07l0.32 -7.58c94.46,-39.09 159.37,-69.84 237.73,-133.9 7.77,-6.35 18.64,-14.74 24.98,-20.9 23.52,-22.83 46.02,-39.82 70.3,-69.45 40.64,-49.61 40.98,-46.8 81.32,-106.45 103.45,-152.99 154.97,-381.03 109.58,-600.49 -73.97,-357.65 -410.17,-661.77 -843.06,-646.88 -651.44,22.41 -1031.6,743.26 -650.91,1282.71 26.38,37.38 53.14,67.67 85.28,100.34l99.83 85.79c65.86,49.79 154.84,94.57 249.65,123.86l1.35 6.69z"/>
   <path class="fil0" d="M1124.73 1484.49c-0.34,0.44 -0.97,0.47 -1.16,1.2 -0.19,0.73 -0.91,0.94 -1.17,1.18l-2.39 2.18c-1.73,1.57 -3.04,2.34 -4.58,4.15 -8.08,9.56 -7.24,25.4 9.02,34.58 -14.76,13.42 -16.94,5.85 -13.5,35.14 -42.09,20.72 -31.72,-34.06 -71.62,-31.99 -22.4,1.16 -27.5,10.31 -46.5,-4.57 -15.39,-12.06 -27.9,-9 -41.02,4.1 -16.74,16.69 -1.2,25.51 -9.18,45.36 -7.03,17.46 -20.69,16.92 -18.92,39.43 1.8,22.96 25.53,63.68 32.54,87.89 -24.24,6.52 -32.99,12.75 -48.92,25.21 -14.53,11.38 -84.77,71.21 -48.25,82.48 17.17,5.29 37.48,-19.76 48.35,-24.8 0.4,13.6 0.56,19.92 7.68,27.32 26.82,-3.14 56.32,-54 60.05,-18.36 0.47,4.51 0.62,9.78 1,14.42 12.73,0.39 30.92,-3.98 38.56,7.29 4.35,6.43 10.81,26.89 10.2,35.85 -2.99,2.15 -8.54,4.94 -11.92,6.93 -0.11,22.03 16.09,25.65 34.29,31.63 43.01,14.12 30.99,5.71 56.74,9.1 17.3,2.27 46.13,28.11 43.34,54.23 -1.1,10.29 -9.25,4.9 -10.51,21.35 5.53,14.31 14.89,19.37 33.17,17.77l307.93 -0.29c19.31,1.67 30,-1.9 35.57,-17.48 -1.15,-12.95 -5.04,-10.48 -10.76,-19.65 2.71,-25.6 4.74,-26.61 17.72,-40.42 23,-24.47 28.53,-6.16 87.48,-26.08 16.44,-5.56 29.4,-11.16 29.36,-30.25 -3.68,-1.93 -8.98,-4.61 -11.95,-6.96 -0.5,-9.01 5.42,-27.36 9.29,-34.41 6.8,-12.4 23.33,-8.26 39.6,-8.36l3.88 -24.78c5.26,-11.24 40.25,26.53 57.25,28.62 7.28,-7.42 7.14,-13.8 7.54,-27.23 9.75,5.4 30.8,27.98 46.61,25.14 26.3,-4.71 1.26,-38.38 -6.93,-46.39 -23.06,-22.56 -46.19,-50.25 -88.49,-62 7.06,-21.57 34.57,-73.87 32.77,-93.96 -1.84,-20.5 -20.17,-22.21 -26.33,-37.2 -8.52,-20.72 16.86,-31.41 2.34,-48.09 -7.29,-8.37 -32.56,-20.68 -46.87,-14.13 -7.64,3.49 -9.01,10.01 -15.31,15.36 -8.28,7.01 -15.54,4.91 -27.49,5.08 -44.8,0.65 -32.93,59.77 -77.97,30.16 -4.7,-22.85 1.94,-20.35 -18.03,-31.48 37.3,-12.27 9.63,-37.51 8.87,-46.46 24.71,-16.81 57.06,-21.41 49.08,-71.49 -5.63,-35.27 -24.03,-57.48 -54.83,-67.03 -34.01,-10.55 -70.74,5.76 -97.53,17.86 -38.76,17.51 -52.08,23.32 -102.1,22.85 -50.22,-0.46 -59.6,-6.58 -98.68,-23.97 -26.97,-12 -66.25,-28.05 -99.62,-15.51 -53.07,19.95 -66.63,89.09 -37.12,115.07 4.57,4.02 11.29,8.77 17.8,12.75 7.18,4.38 15.87,7 21.62,11.66z"/>
   <path class="fil3" d="M1189.72 626.67c-21.74,20.71 -30.03,79.46 -125.09,95.41 3.62,5.99 12.47,11.51 23.57,25.49 27.39,34.49 24.28,76.89 24.19,121.15 -0.15,64.73 0.77,129.61 1.03,194.36 0.23,57.15 33.35,103.68 75.3,118.85 35.36,12.79 106.7,9.59 141.7,41.72 16.84,15.46 0.34,-3.69 54,-20.55 19.21,-6.03 38.2,-9.86 59.32,-12.86 51.43,-7.31 73.56,-18.6 95.45,-50.59 25.84,-37.76 22.86,-70.42 23.16,-122.44 0.26,-45.07 -3.22,-201.08 7.77,-237.49 3.95,-13.08 9.53,-22.17 16.44,-31.65 7.38,-10.13 17.23,-17.34 24.35,-25.49 -99.54,-25.14 -89.63,-54.76 -124.23,-95.65 -23.39,4.76 -72.91,33.02 -122.45,-11.34 -5.74,-5.15 -8.28,-8.55 -13.01,-13.22 -7.07,-6.97 -6.56,-8.73 -13.02,-14.85 -13.19,10.1 -23.34,33.85 -59.43,47.18 -35.45,13.08 -59.64,1.73 -89.05,-8.03z"/>
   <path class="fil4" d="M869.35 822.87c-3.93,0.54 -9.14,1.63 -10.54,4.37l-65.75 650.74 -59.25 0.95c-11.95,-11.25 -9.88,-24.64 -30.87,-30.84 7.81,-31.65 56.87,-140.28 56.44,-160.49 -19.03,-17.34 -14.35,-5.8 -13.93,-67.32l0.49 -52.66c-1.27,-19.58 -8.95,-5.23 -7.68,-25.93 0.78,-12.61 15.92,-21.09 30.32,-32.53 16.05,-12.76 37.39,-39.56 47.01,-60.17 22.11,-47.38 -8.42,-95.63 -31.42,-124.02 -8.85,-10.92 -29.32,-33.54 -32.41,-52.49 -4.77,-29.21 24.53,-41.68 26.8,-54.98 -2.01,-0.73 -0.94,-1.19 -5.44,-0.61 -8.73,1.11 -6.79,6.05 -19.33,5.11 -7.57,-27.72 17.34,-45.6 19.57,-64.98 -11.23,1.24 -3.16,-1.17 -17.2,14.45 -12.96,14.42 -31.37,39.47 -38.64,57.58 -34.87,86.85 63.35,77.58 9.67,203.98 -5.37,12.67 -14.13,32.8 -16.89,46.35 -4.02,19.66 2.76,34.72 16.23,46.28l-0.04 22.56 -17.33 6.46 -0.44 87.31c-6.03,-3.48 -5.44,-5.39 -11,-10.02 -4.72,-3.94 -7.79,-5.23 -12.3,-9.71 -8.08,-8.02 -14.99,-14.26 -24.12,-19.65 -7.79,3.72 -19.32,13.37 -24.62,19.25l-34.48 33.16c-14.29,12.75 -20.13,15.42 -34.87,32.95l52.88 152.04c-27.33,4.29 -50.54,11.93 -52.08,38.24 -2.24,38.25 26.04,26.64 52.62,20.53 31.69,-7.29 52.7,46.8 99.37,18.42 11.11,-6.76 16.91,-12.14 16.08,-28.82l269.65 -0.32c6.95,-1.94 1.98,0.76 5.94,-3.57 -4.7,-8.68 -3.41,-5.71 -29.51,-5.62 -10.63,0.04 -21.28,0.01 -31.91,0.01 -4.22,-17.32 -52.94,-641.72 -53.86,-653.98l-10.72 -2.09 0.1 -143.92 -15.26 0 -1.28 143.98z"/>
   <path class="fil0" d="M2019.2 1201.27c-6.02,4.29 -3.49,1.21 -9.88,3.72l0.09 19.66 -4.92 -0.13c-10.15,0.1 -50.57,49.62 -70.18,62.84 -17.28,-16 -11.84,-19.5 -11.65,-49.61 0.13,-21.08 0.28,-42.15 0.38,-63.22 -10.47,-0.71 -23.53,-2.08 -33.22,1.16l-0.64 66.12 -22 -19.66 -65.45 66.14c-5.87,-2.89 -26.22,-22.07 -28.75,-26.64 -4.61,-8.34 -2.74,-42.91 -2.95,-54.77l-19.53 -0.66 0.36 33.43 -19.05 -17.45 -61.66 61.44c-12.27,11.23 -8.87,11.25 -8.78,32.71 0.21,52.61 2.33,111.56 -0.29,163.49l-43.92 0.49 -0.07 9.53c23.58,3.26 461.55,3.06 485.35,-0.16l0.05 -7.85c-7.91,-3.19 -17.74,-1.83 -27.93,-2.23l-0.85 -174.18c-0.05,-17.99 -1.39,-14.47 -20.82,-33.43 -8.18,-7.99 -23.73,-18.02 -24.34,-31.95 -1.08,-24.68 2.95,-27.37 -3.74,-49.1 -11.26,-36.63 21.88,-44.83 33.11,-74.22 14.08,-36.81 2.34,-55.51 -19.53,-83.54l-16.74 -24.64c-6.66,-9.33 -1.02,-5.18 -9.33,-6.82 4.58,18.92 22.13,23.51 17.93,54.58 -2.48,18.38 -14.27,36.43 -22.2,49.89 -22.91,38.89 -31.75,74.89 11.15,95.06z"/>
   <path class="fil1" d="M1450.17 870.21l105.65 -0.22c-5,-34.81 -1.05,-85.55 18.88,-118.36l18.99 -24.85c-27.91,-10.1 -52.33,-16.38 -72.3,-39.03 -23.11,-26.21 -16.28,-18.57 -37.49,-51.7 -43.17,11.36 -71.83,24.59 -120.4,-10.92l-20.44 -18.98c-3.31,-3.1 -2.27,-3.09 -6.17,-6.38 -9.2,13.53 -33.02,35.49 -58.55,43.4 -32.13,9.95 -58.21,3.02 -86.44,-6.51 -11.84,13.3 -21.35,39.44 -42.56,56.34 -23.57,18.78 -32.9,22.54 -67.76,33.79 5.7,10.13 25.51,22.11 33.2,57.64 6.32,29.2 5.49,56.57 5.31,86.53l104.97 0c1.48,-36.84 10.35,-68.5 29.11,-92.76 8.8,-11.4 20.21,-21.6 32.03,-29.33 80.1,-52.32 169.99,33.83 163.97,121.34z"/>
   <path class="fil5" d="M1555.82 869.99l-105.65 0.22c-6.66,44.42 -6.94,62.22 -30.69,92.96 -16.32,21.12 -40.08,41.99 -80.94,43.47l-1.02 212.8c0.65,-0.3 1.51,-1.46 1.81,-0.97l20.99 -12.98c72.1,-35.35 132.51,-4.83 175.03,-72.06 24.48,-38.71 19.87,-69.84 20.11,-122.77 0.18,-40.36 5.08,-102.72 0.36,-140.67z"/>
   <path class="fil0" d="M1079.73 2126.71l-1.35 -6.69c-94.81,-29.29 -183.79,-74.07 -249.65,-123.86l-99.83 -85.79c-32.14,-32.67 -58.9,-62.96 -85.28,-100.34 -380.69,-539.45 -0.53,-1260.3 650.91,-1282.71 432.89,-14.89 769.09,289.23 843.06,646.88 45.39,219.46 -6.13,447.5 -109.58,600.49 -40.34,59.65 -40.68,56.84 -81.32,106.45 -24.28,29.63 -46.78,46.62 -70.3,69.45 -6.34,6.16 -17.21,14.55 -24.98,20.9 -78.36,64.06 -143.27,94.81 -237.73,133.9l-0.32 7.58c14.61,6.82 112.73,-45.51 128.69,-54.32 113.35,-62.56 223.25,-163.11 293.25,-274.44 104.63,-166.42 163.38,-374.77 113.72,-610.31 -46.04,-218.34 -167.47,-370.4 -288.68,-469.23 -133.93,-109.2 -334.63,-197.05 -568.1,-188.44 -419.76,15.47 -746.84,325.27 -802.68,709.1 -45.38,311.88 100.53,618.71 337.53,783.39 59.82,41.56 113.93,72.39 183.96,99.86 11.27,4.42 60.4,26.18 68.68,18.13z"/>
   <path class="fil1" d="M1325.07 740.09c-61.25,10.67 -99.54,72.09 -94.41,145.07 5.82,82.67 88.87,152.47 162.05,99.14 38.4,-27.99 56.62,-79.76 52.12,-128.65 -4.19,-45.46 -30.07,-91.17 -71.47,-109.25 -15.65,-6.84 -31.16,-9.29 -48.29,-6.31z"/>
   <path class="fil6" d="M1038.85 1176.61c0.36,29.29 19.42,59.11 35.23,71.89 47.61,38.51 116.83,24.37 177.16,38.94 15.3,3.7 76.97,21.19 86.88,20.98 12.22,-0.26 67.55,-16.59 85.1,-20.57 67.31,-15.26 133.91,-1.09 178.23,-40.12 13.34,-11.75 39.21,-42.52 34.7,-72.12l-43.69 -35.18c-4.65,31.67 -7.95,47.89 -28.13,63.61 -31.42,24.48 -95.15,17.69 -151.82,31.76 -103.96,25.82 -43.65,26.39 -147,0.49 -87.9,-22.02 -179.44,4.07 -182.03,-95.4 -5.41,1.38 -16.56,12.85 -21.89,16.77l-22.74 18.95z"/>
   <path class="fil1" d="M1129.74 1351.09c-47.37,14.21 -78.42,83.28 -25.41,113.95 13.2,7.63 31.42,17.69 50.6,10.84 43.82,-15.65 16.64,-78.55 -18.31,-46.69 -4.12,3.76 -10.47,12.55 -16.15,14.71 -36.61,13.92 -10.05,-115.3 101.65,-26.75 23.69,18.77 46.49,37.69 86.83,42.24 95.98,10.83 111.6,-69.03 182.44,-72.59 56.4,-2.83 61.44,69.12 34.27,56.87 -10.1,-4.56 -18.03,-25.48 -38.55,-23.76 -30.44,2.56 -22.22,74.4 32.56,56.04 80.51,-26.99 45.06,-96.28 19.94,-114.26 -30.18,-21.59 -68.1,-13.59 -100.63,0.8 -37.09,16.42 -50.67,27.06 -99.05,29.14 -47.66,2.04 -70.44,-1.52 -108.68,-18.54 -27.63,-12.29 -64.89,-32.99 -101.51,-22z"/>
   <path class="fil1" d="M1173.58 1596.58l0.34 25.62 43.3 27.79c1.92,-22.74 -9.66,-78.09 27.21,-63.06 13.54,5.51 9.33,24.69 9.26,39.49 -0.07,15.89 -0.18,31.79 -0.16,47.68 10.32,7.22 29.99,21.83 41.05,26.65 -0.05,-24.04 -0.19,-48.1 -0.26,-72.15 -0.09,-30.33 -5.36,-44.59 30.79,-43.96 44.5,0.77 22.54,36.19 27.66,120.08l40.37 -25.47c4.2,-35.54 -8.07,-84.69 8.65,-91.86 12.15,-5.21 31.38,-1.76 33.71,11.18 2.23,12.37 -0.61,36.61 0.74,51.37 7.53,-2.96 32.07,-17.8 35.88,-25.7l-0.01 -27.71c20.84,-4.47 54.5,8.85 45.02,-23.25 -15.79,-4.36 -304.32,1.36 -368.96,0.22 -11.48,-0.21 -20.22,-3.17 -20.27,9.08 -0.08,22.2 30.63,10.45 45.68,14z"/>
   <path class="fil7" d="M1333.5 816.37l-7.55 -51.07c-0.17,-0.38 -0.49,-1.1 -0.85,-1.57 -10.13,11.6 -0.5,26.03 2.28,55.72l-20.07 6.33c-3.78,-11.9 -11.58,-24.99 -25.4,-26.56l9.02 15.52c-4.62,-2.92 -0.31,0.87 -5.41,-4.56 -9.77,-10.43 -3,-9.5 -19.79,-9.55 0.32,18.28 8.2,14.17 18.1,27.11 -6.96,-4.61 -11.22,-9.04 -18.63,-11.64 -0.09,13.18 2.18,11.53 26.36,26.06 -2.3,5.78 -3.98,13 -8.76,16.98 -12.64,-3.86 -26.95,-7.21 -35.94,-3.15 4.09,4.6 -2.7,4.34 18.98,7.13 5.86,0.75 13.13,1.48 17.81,2.88 -23.98,-0.55 -32.48,-6.55 -46.36,2.28 4.03,16.65 16.46,8.1 46.36,7.54l-27.98 4.25c-11.21,3.56 -3.61,-0.07 -8.79,5.65 8.8,4.05 23.32,0.83 35.87,-3.07 4.84,3.97 6.55,11.16 8.83,17.02 -5,2.93 -9.16,5.92 -15.34,9.62 -9.23,5.51 -11.15,3.28 -11.03,16.4 6.76,-2.39 11.85,-7.13 18.6,-11.61 -9.71,12.64 -17.77,8.75 -18.08,27.11 10.11,-0.03 9.01,1.74 14.86,-3.42 3.4,-3 3.47,-6.42 10.34,-10.73l-9.7 15.16c12.72,-1 15.43,-5.58 27.36,-25.79l18.13 6.65c0.33,17.59 -12.32,42.69 -1.62,55l3.93 -13.95c0.66,-6.11 0.78,-11.94 2.19,-17.04 1.1,33.18 -6.54,35.34 8.22,41.86 11.17,-10.23 2.73,-38.07 4.49,-54.42l2.86 34.5c2.66,14.09 -0.09,5.44 5.51,9.85 7.58,-13.4 -2.99,-30.22 -3.79,-55.55 5.55,-2.16 12.69,-5.17 18.08,-6.82 16.95,24.84 13.1,25.04 26.98,26.07l-12.31 -19.2c9.02,6.31 12.11,20.34 28.18,16.6 -0.07,-7.72 0.71,-8.85 -4.15,-13.71 -2,-1.99 -2.98,-2.07 -5.07,-3.8l-6.06 -6.22c6.46,3.89 9.52,7.01 16.33,9.69 -0.02,-16.75 -7.33,-11.35 -25.89,-26.63l6.32 -16.58c19.62,4.56 27.77,7.64 37.45,1.92 -5.13,-5.59 -1.11,-3.6 -17.71,-5.93 -7.5,-1.05 -10.38,-1.79 -18.81,-2.17 20.17,-2.19 33.63,8.32 46.07,-5.62 -12.17,-13.87 -25.61,-3.51 -46.07,-5.62 7.34,-0.38 10.44,-0.83 16.83,-1.85 3.12,-0.49 7.41,-0.81 10.12,-1.4 2.62,-0.57 3.03,-0.51 5.35,-1.65 0.51,-0.25 1.07,-0.68 1.5,-0.94l2.75 -2.29c-11.19,-6.56 -14.53,-2.12 -37.48,1.99l-6.6 -16.51c5.3,-4.27 10.83,-7.31 15.78,-10.31 9.45,-5.74 10.35,-3.9 10.41,-16.46 -6.87,2.66 -9.88,5.79 -16.37,9.71 4.95,-7.16 6.68,-5.7 11.09,-10.07 4.95,-4.91 4.13,-5.79 4.21,-13.65 -16.14,-3.76 -19.22,10.26 -28.21,16.6 2.82,-3.77 3.5,-4.72 5.73,-7.93l6.59 -11.26c-12.45,0.91 -10.21,1.21 -16.18,10.5 -3.65,5.68 -7.19,10.29 -10.78,15.52 -5.17,-1.6 -14.42,-5.23 -18.76,-6.99 1.69,-8.98 2.99,-18.14 4.53,-27.4 2.28,-13.61 5.34,-18.58 -0.04,-27.97 -5.68,4.46 -2.85,-4.32 -5.54,9.87l-2.85 34.47c-1.69,-15.83 8.97,-47.3 -8.14,-54.4 -7.95,11.06 -5.11,15.64 -4.36,33.01 0.31,7.38 -0.68,26.72 2.07,30.49z"/>
   <path class="fil0" d="M562.25 594.57c-97.2,22.04 -58.52,162.06 32.06,143.83 34.8,-7 64.92,-43.08 55.84,-85.71 -7.18,-33.73 -44.47,-67.96 -87.9,-58.12z"/>
   <path class="fil1" d="M1765.71 1151.23c-4.14,-10.93 13.19,-33.43 18.47,-39.49 47.12,-54.09 61.33,-38.94 54.17,-132.02 -2.81,-36.57 -10.51,-72.46 -16.15,-108.76 -5.42,-34.88 23.53,-65.54 36.32,-90.3l-50.64 -60.76c-26.99,21.94 -43.08,62.08 -41.49,100.87 4.14,101.3 71.83,156.95 41.84,231.71 -12.88,32.12 -50.28,63.61 -42.52,98.75z"/>
   <path class="fil1" d="M1135.5 1488.04c-19.25,2.27 -29.63,19.6 -14.83,32.81 9.55,8.53 36.33,5.43 51.58,5.37l227.09 -0.32c38.44,-0.32 125.97,9.87 132.34,-11.81 9.2,-31.3 -37.18,-27.25 -55.92,-27.28 -45.56,-0.07 -318.01,-1.4 -340.26,1.23z"/>
   <path class="fil1" d="M1129.63 1532.22c-18.48,4.51 -24.31,23.69 -8.61,34.03 11.35,7.46 147.85,3.25 166.96,3.25 30.74,0.01 213.44,1.57 227.71,-1.58 18.53,-4.08 20.34,-24.46 5.61,-32.88 -12.7,-7.27 -36.51,-4.77 -52.09,-4.84l-227.09 0.28c-22.38,0.12 -96.49,-2.17 -112.49,1.74z"/>
   <path class="fil1" d="M802.47 1476.51l137.32 0.04c1.92,-10.56 -4.38,-92.4 -8.73,-98.23 -0.81,-1.1 -12.29,-10.03 -14.37,-11.66l-45.08 -35.9 -59.45 48.62c-2.41,5.76 -10.58,89.29 -9.69,97.13z"/>
   <path class="fil1" d="M1938.87 1298.89l0.2 180.78 28.05 0.19 0.38 -188.86 62.81 -0.11 1.15 188.06 35.19 0.83 -0.37 -174.34c-0.09,-15.88 -9.52,-19.7 -28.37,-38.09 -9.52,-9.29 -25.98,-28 -35.91,-33.75 -11.06,9.01 -21.71,20.46 -32.41,30.7 -7.03,6.73 -30.72,24.67 -30.72,34.59z"/>
   <path class="fil1" d="M1668.82 1298.89l0.12 180.16 28.72 0.38 0.2 -188.08 63.87 0.15 0.02 188.25 34.71 0.09c1.66,-40.38 -0.02,-111.13 -0.16,-154.75 -0.05,-14.92 3,-24.45 -5.12,-33.72 -7.14,-8.15 -12.13,-13.24 -19.16,-20.15 -9.39,-9.23 -31.09,-33.72 -41.54,-37.94 -11.95,13.39 -61.66,59.93 -61.66,65.61z"/>
   <path class="fil1" d="M1804.23 1298.89l0.11 180.14 29.76 0.92 0.4 -189.13 63.91 0.13 0.07 188.88 32.74 -0.19 -0.13 -172.02c-0.06,-16.77 -14.12,-27.05 -28.07,-40.76 -9.01,-8.86 -26.6,-29.47 -37.16,-33.6 -12.35,14.14 -61.63,59.82 -61.63,65.63z"/>
   <path class="fil0" d="M352.46 1640.82c-32.84,-45.3 -68.49,-17.07 -63.6,17.61l27.35 86.17c3.5,7.93 -0.34,7.72 8.82,4.51 2.25,-5.86 -2.12,-9.35 -1.73,-19.91 12.47,-6.23 103.56,-38.49 112.97,-35.67 7.48,3.96 1.93,11.98 11.04,14.83 6.54,-3.65 7.29,3.46 -1.81,-23.36 -13.1,-38.62 -28.21,-115.39 -75.56,-94.46 -18.78,8.3 -15.94,27.08 -17.48,50.28z"/>
   <path class="fil0" d="M1356.1 2161.17c32.53,11.16 34.12,8.57 60.94,-4.12 18.03,-25.87 26.45,-45.18 20.77,-88.61 -12.29,-93.81 -134.52,-60.91 -102.64,58.93 5.39,20.22 10.28,23.61 20.93,33.8z"/>
   <path class="fil1" d="M662.41 1447.47c40.98,-5.35 29.89,3.67 46.88,-41.54 8.52,-22.67 40.24,-103.38 41.88,-116.07l-32.38 -26.71c-4.87,-4.24 -4.65,-5.77 -9.42,-10.06 -3.93,-3.54 -7.36,-4.97 -11.31,-8.5l-20.51 -18.74c-6.14,-6.45 -4.59,-5.63 -12.05,-9.43l-3.09 231.05z"/>
   <path class="fil0" d="M352.79 1259.58c3.7,9.36 -1.79,1.84 7.68,6.22 6.76,3.13 4.63,-2.36 8.44,6.88 -11.18,16.3 -46.88,2.77 -56.04,40.65 -5.26,-17.35 -5.92,-30.33 -19.58,-39.42 -16.28,-10.83 -35.74,-0.48 -42.15,9.99 -8.76,14.3 -8.81,31.28 -9.16,49.92 -0.53,28.45 -2.58,47.93 0.34,56.52l1.92 3.84c6.28,-2.88 2.48,2.69 6.01,-11.35 2.82,-11.26 2.93,-8.24 39.84,-7.51 21.14,0.42 42.32,0.97 63.46,1.18 13.84,0.14 16.97,-1.81 19.34,10.02 1.51,7.53 -2.91,10 4.66,10.19 6.62,0.16 4.66,-4.7 4.88,-12.45 0.35,-12.5 3.24,-50.48 -0.63,-58.61 -12.09,0.36 -5.23,-2.91 -7.63,7.8 -1.79,8.01 2.54,4.86 -4.27,10.63 -6.44,5.36 -42.9,1.83 -54.36,1.41 -12.17,-53.59 84.44,-15.13 68.64,-70.78 -2.79,-9.82 -12.83,-16.11 -20.35,-17.31 -14.1,-2.25 -7.93,-0.3 -11.04,2.18z"/>
   <path class="fil0" d="M2074.52 597.48c17.88,24.52 10.49,13.18 -26.8,48.43 -73.18,69.16 -50.39,34.88 -68.67,33.92 -7.6,9.56 14.66,24.28 29.29,42.77 5.58,7.06 6.07,8.28 13.31,14.21l5.83 -5.09c-13.67,-19.35 -16.38,-13.32 9.52,-35.5 8.81,-7.55 11.94,-11.44 21.77,-18.44 30.7,20.8 -5.79,45.86 -15.1,64.45 -7.75,15.46 2.15,29.41 11.36,34.17 6.48,3.36 12.36,3.91 19.9,1.61 0.87,-0.27 8.85,-4.16 8.98,-4.26 7.81,-5.73 3.77,-1.02 5.15,-7.48 -9.07,-5.32 -6.71,2.63 -21.86,2.38 -0.14,-23.47 28.9,-28.5 15.71,-68.63 10.08,7.44 29.02,21.97 47.27,13.04 16.72,-8.18 21.54,-28.15 11.93,-47.84 -5.52,-11.31 -56.32,-69.81 -61.5,-72.84l-6.09 5.1z"/>
   <path class="fil0" d="M1395.47 279.16c2.56,8.43 -1.52,1.73 17.34,7.79 0.75,14.15 -11.84,106.45 -16.25,118.28 -8.05,2.35 -6.4,0.4 -14.19,1.55 -5.33,0.78 -1.51,-0.67 -4.81,1.21 0.24,10.51 2.37,6.84 32.62,10.94l28.86 4.3c14.36,0.01 5.37,3.26 9.18,-4.32 -4.36,-7.43 1.72,-1.57 -8.99,-5.15 -5.52,-1.85 -2.34,0.77 -9.16,-3.58 -2.86,-12.14 3.44,-41.65 5.43,-55.57 39.62,-5.46 23.64,37.8 33.36,62.49 4.02,10.19 16.56,17.19 31.52,13.27 6.42,-1.68 10.51,-5.57 13.58,-10.4 3.42,-5.39 6.56,-12.93 3.29,-18.32 -12.03,1.21 -3.27,5.96 -12.56,14.69 -18.28,-6.37 1.18,-43.88 -37.23,-61.97 61.86,-1.25 55.97,-44.66 30.63,-60.45 -13.71,-8.54 -33.3,-9.86 -50.9,-12.38l-40.5 -5.9c-14.93,-1.73 -8.28,0.29 -11.22,3.52z"/>
   <path class="fil0" d="M789.48 2143.92c-2.04,10.21 -22.1,40.44 -28.72,51.43 -7.12,11.82 -22.66,41.44 -31.77,48.12 -11.67,-3.47 -12.01,-10.66 -16.96,1.41 10.53,7.22 42.89,27.58 54.5,32.03 4.72,-10.06 1.68,-5.93 -8.36,-15.5 1.14,-9.26 13.03,-25.93 19.19,-36.29l8.4 -12.09c15.26,7.02 28.63,17.32 43.61,25.02l-27.4 47.81 -16.07 -5.84 -3.43 5.88c3.85,5.08 32.91,20.98 40.73,25.91 11.91,7.52 13.56,8.25 15.55,3.54 4.71,-11.09 -20.49,-1.4 -4.52,-26.9 17.58,-28.09 35.77,-57.96 51.85,-85.32 10.43,0.33 13.14,5.56 17.61,4.12 5.01,-8.24 2.05,-6.93 -7.43,-12.24l-37 -22.36c-11.92,-5.38 -5.39,-2.03 -8.25,-0.04 -3.75,6.93 1.18,4.19 8.59,12.8 -0.77,10.05 -18.14,35.16 -23.28,43.19l-44.38 -25.71c2.42,-7.9 18.25,-34.17 24.39,-41.25 10.63,-0.97 5.51,0.67 11,2.03 8.02,1.98 1.33,4.65 7.81,-0.76 -0.3,-7.67 -8.53,-9.65 -15.37,-13.73 -6.64,-3.96 -12.83,-7.69 -19.06,-11.5 -3.81,-2.32 -15.48,-10.87 -18.81,-9.38 -9.33,4.18 3.9,10.06 7.58,15.62z"/>
   <path class="fil0" d="M1233.58 2157.07l12.39 11.59 18.57 -7.56c5.5,-5.82 9.57,-6.6 15.1,-12.39 11.57,-12.11 26.63,-36.44 29.79,-55.31 5.88,-35.11 -5.37,-69.62 -36.06,-76.8 -76.24,-17.82 -92.59,106.61 1.18,94.02 -7.98,23.91 -32.76,35.59 -37.09,39.63 -4.22,3.95 -3.03,0.51 -3.88,6.82z"/>
   <path class="fil0" d="M670.88 2041.74c7.96,15.62 29.74,1.61 -23.68,59.72 -7.8,8.48 -35,43.27 -40.49,43.37 -11.27,-3.78 -9,-11.2 -17.36,-7.46 -4.38,3.94 -4.1,3.61 8.23,13.5l37.61 32.54c2.38,1.98 5.47,5.25 8.79,1.98 4.69,-7.75 -5.72,-9.46 -10.83,-17.45 1.51,-9.97 24.03,-33.61 30.97,-40.52l20.7 17.01c41.81,31.69 72.67,5.07 70.16,-24.31 -1.9,-22.35 -22.1,-34.62 -34.73,-46.03 -6.82,-6.16 -15.42,-12.64 -22.67,-18.89 -8.85,-7.64 -13.42,-12.88 -23.62,-18.43l-3.08 4.97z"/>
   <path class="fil0" d="M1227.36 2298.96c6.07,12.76 21.21,-9.78 19.96,21.7l-3.25 85.44c-0.83,31.13 -16.11,7.77 -21.53,21.69 2.53,5.2 -0.94,1.91 4.73,3.7l32.41 1.5c6.71,0.25 13.29,0.52 19.87,0.87 9.28,0.48 13.89,2.9 16.39,-3.89 0.2,-10.09 -15.42,0.04 -21.41,-8.96 -4.22,-9.89 -0.34,-36 -0.01,-48.83 21.73,0.54 44.65,3.63 61.47,-7.73 13.77,-9.3 24.1,-30.84 8.97,-50.38 -17.33,-22.39 -64.47,-18.31 -103.03,-19.85 -18.09,-0.72 -11.95,0.97 -14.57,4.74z"/>
   <path class="fil0" d="M1370.54 2301.14c4.01,8.72 5.72,1.85 19.49,4.99 5.18,9.93 14.87,101.04 14,116.01 -18.6,6.51 -14.42,-1.34 -18.47,7.83 2.3,4.25 0.34,5.04 16.56,2.78l39.04 -4.6c1.32,-0.13 9.36,-0.85 9.77,-0.95 11.67,-2.92 4.98,1.76 7.54,-5.97 -7.52,-11.93 -20.68,10.38 -25.48,-14.33l-3.59 -38.07c18.89,-8.23 36.68,-0.85 56.3,-16.25 20.05,-15.73 31.65,-72.43 -51.46,-62.48l-56.81 6.57c-9.31,2.7 -3.39,-1.82 -6.89,4.47z"/>
   <path class="fil1" d="M1496.44 1796.74l0.43 8.39 173.78 -0.01 0.35 -57.45 -53.78 0.51c-3.96,8.16 -8.25,10.19 -12.27,18.09 -12.57,-5 -18.13,-18.6 -33.11,-18.6l-75.4 0 0 49.07z"/>
   <path class="fil1" d="M982.52 1801.56l174.58 0.37 -0.03 -57.47c-21.21,0 -42.33,0.07 -63.43,-0.01 -39.56,-0.15 -23.72,4.3 -48.04,18.1 -3.18,-2.11 -1.02,-0.37 -3.81,-3.33 -2.13,-2.28 -2.25,-2.72 -4.04,-4.97 -2.65,-3.34 -5.47,-6.5 -7.32,-9.69l-47.77 -0.05 -0.14 57.05z"/>
   <path class="fil8" d="M1202.44 1094.11l-7.48 16.71c-5.1,-0.56 -4.4,-2.94 -10.04,-4.39 -6.19,-1.59 -3.65,-0.01 -12.66,0.31 7.94,23.98 11.13,11.4 21.39,13.64 8.24,21.38 1.91,6.04 9.41,18.85 -7.73,-6.14 -3.06,-2.09 -6.69,-11.74 -2.68,-7.13 -3.19,-5.25 -7.74,-11.98l21.54 -0.81c-4.43,6.48 -4.21,4.84 -6.87,11.68 0.72,0.51 1.54,7.59 7.25,-1 -3.24,15.88 -1.59,4.35 2.65,8.6l8.81 3.58c10.86,1.03 7.89,-2.93 15.16,0.92l-0.33 -10.9c0.57,6.42 0.57,3.52 5.28,6.68 0.74,-1.54 1.44,-0.76 1.72,-5.09 0,-0.03 -0.67,-3.72 -0.7,-3.85 5.95,8.59 7.07,1.34 7.48,1.06 -2.71,-6.95 -2.55,-5.23 -6.91,-11.4l22.08 0.45c-2.38,3.86 -8.02,9.24 -9.53,11.78 -6.04,10.18 3.28,-1.59 -0.58,11.52 7.54,-2.67 2.66,-1.63 8.87,-0.84l18.39 -36.26c3.46,-4.33 11.89,-9.89 14.49,-14.05 5.35,-8.54 1.46,-3.97 0.5,-7.13l-2.5 -9.94c-4.96,8.14 -5.96,3.28 -7.12,15.04l-4.7 -9c-9.02,12.67 -3.56,20.58 -12.74,28.62l-5.2 3.3c-4.93,2.35 3.81,0.69 -7.54,2.71 -4.39,-11.34 -2.83,-6.48 -8.05,-15.36 2.62,-5.48 0.24,-1.77 4.09,-5.3 5.66,-5.18 3.9,-0.92 9.2,-6.2l2.98 -3.45c5.61,-7.15 9.09,-21 11.46,-28.15l9.93 -31.03c2.81,-4.01 6.31,-7.93 8.35,-12.64 -14.13,0.69 -34.49,12.95 -45.15,23.58 -5.87,5.84 -6.29,9.22 -6.84,19.1 4.73,5.24 2.03,-1.47 5.07,6.09l-8.54 7.97c-9.43,-16.21 6.85,-35.32 -34.28,-33.29 2.48,18.7 -0.38,1.03 10.46,14.69 1.77,2.24 2.27,3.95 3.2,5.63l-7.35 10.77c-3.2,3.58 0.97,0.35 -3.29,2.96 -7.44,-3.74 -2.98,0.15 -7.99,-5.63 2.58,-8.54 9.25,-6.9 4.07,-19.76 -2.51,-6.22 -2.13,-4.1 -5.58,-7.91 -10.83,-11.94 -35.23,-24.69 -46.03,-23.54 2.11,2.92 5.15,6.98 7.29,10.05 2.29,3.29 2.3,2.92 3.52,6.34l0.91 3.71c0.07,0.28 0.23,0.91 0.31,1.18 0.07,0.26 0.27,0.89 0.35,1.15 0.07,0.25 0.3,0.86 0.37,1.11 0.08,0.26 0.31,0.85 0.39,1.11l7.16 23.36c2.23,7.66 2.66,12.88 7.31,19.98l20.99 16.41z"/>
   <path class="fil1" d="M1511.97 1861.37c1.41,-13.85 -26.76,-27.93 -38.72,-35.9l-281.75 -187.73c-8.14,-5.34 -15.93,-10.31 -23.5,-15.79 -27.57,-19.95 -42,0.57 -15.15,17.3l167.12 107.97c32.02,20.93 63.16,39.88 94.52,60.62l71.61 46.3c7.55,4.9 16.04,13.32 25.87,7.23z"/>
   <path class="fil0" d="M2195.64 750.81c-4.21,5.79 -95.95,62.98 -101.93,61.09 -8.32,-6.71 -7.08,-14.47 -16.19,-13.21 -1.29,2.98 -5.87,-1.36 4.18,14.26l59.1 97.36 37.85 -20.03c7.92,-4.31 9.18,-2.29 7.67,-9.22 -3.75,-7.26 -6.79,-0.07 -21.06,2.25 -9.9,1.61 -19.74,0.41 -27.21,-4.32 -9.09,-5.75 -24.09,-25.12 -25.84,-37.96 4.51,-5.44 39.85,-27.97 49.36,-29.9 10.19,32.02 6.27,21.37 -10.04,41.74l3.99 6.37 49.72 -29.73c6.79,-5.77 4.63,1.37 3.93,-9.06 -13.51,-5.55 -28.33,17.24 -41.53,-16.09 12.59,-5.59 34.16,-22.95 46.17,-25.11 8.94,6.6 33.5,37.07 13.35,61.3 -6.07,7.3 -13.81,9.39 -9.49,17.46 4.53,4.02 29.19,-19.05 41.03,-23.42 -3.37,-11.53 -48.05,-82.07 -57.55,-97.46 -2.76,-4.46 -10.36,-15.65 -11.9,-4.24 -0.58,4.28 5.71,8.15 6.39,17.92z"/>
   <path class="fil0" d="M2196.44 1660.95l38.32 12.4c1.98,0.65 4.4,1.6 6.56,1.81l6.17 -0.7c3.72,-14.47 -17.53,-5.42 -28.55,-31.36 -6.09,-14.33 -0.65,-40.69 7.97,-51.33 10.37,-0.65 47.92,9.93 54.5,15 -7.97,32.6 -27.41,17.36 -37.43,24.02 0.78,8.26 0.82,6.25 11.11,8.98 5.95,1.58 11.09,2.77 17.24,4.51 10.47,2.96 24.18,9.82 34.03,7.2 1.59,-11.1 -4.91,-6.35 -13.14,-14.95 -5.41,-5.66 -14.03,-31.56 8.22,-26.08 4,0.99 9.64,3.03 13.62,4.19 6.51,1.9 21.86,4.17 25.51,10.09 2.36,3.81 -2.47,46 -29.71,50.37 -11.63,1.87 -13.41,-1.79 -23.45,2.74 -0.39,0.18 -1.08,0.57 -1.52,0.99 1.74,6.68 -6.77,3.13 21.23,9.25 9.12,1.99 17.18,4.67 25.89,5.13 5.49,-19.93 11.44,-39.55 17.1,-59.38l13.21 -45.99c2.14,-7.25 4.02,-8.51 0.16,-13.02 -8.84,-4.63 -6.56,4.25 -11.5,16.97 -9.45,0.13 -110.73,-26.82 -114.86,-32.52 -4.16,-11.16 3.84,-11.91 -0.51,-19.18 -7.64,-12.77 -15.67,31.1 -19.83,45.69 -5.27,18.49 -18.83,58.12 -20.34,75.17z"/>
   <path class="fil0" d="M261.73 1198.71c11.88,-0.71 108.31,17.77 117.4,21.92l-0.35 19.99 7.35 1.07 24.02 -125.42 -39.76 -9.2c-1.4,-0.33 -5.83,-1.34 -7.02,-1.38 -0.49,-0.02 -1.15,-0.01 -1.61,0.01l-4.44 1.03c-0.07,13.12 -5.33,1.42 16.72,14.26 25.81,15.03 20.09,42.25 12.5,66.93 -15.94,1.26 -40.76,-6.29 -57.1,-8.71 1.56,-10.76 3.68,-17.93 10.7,-22.55 12.15,-7.97 20.03,1.42 25.01,-8.44 -4.39,-6.87 -16.12,-6.29 -31.14,-9.18 -7.47,-1.44 -26.81,-6.67 -33.13,-3.92 -0.45,17.66 -0.34,-0.96 15.72,15.01 5.06,5.04 11.38,23.61 -0.36,25.72 -3.09,0.55 -3.89,0.24 -7.04,-0.27 -9.52,-1.53 -34.43,-5.72 -40.64,-9.89 -1.93,-12.02 2.72,-34.18 9.4,-42.7 13.21,-16.87 23.83,-7.94 39.81,-14.07 0.9,-9.62 8.43,-6.43 -20.06,-9.93 -9.42,-1.16 -18.16,-2.56 -27.55,-3.32 -4.26,35.28 -15.67,76.82 -20.76,110.82 -0.61,4.04 -1.94,15.81 5.85,9.73 3.5,-2.72 4.98,-14 6.48,-17.51z"/>
   <path class="fil0" d="M1219.53 279.16c3.8,9.06 -2.59,3.48 9.2,5.55 3.11,0.55 7.33,0.25 11.22,1.08 2.74,11.18 6.1,109.74 2.51,117.61 -5.94,8.8 -19.54,-0.99 -19.42,8.96 0.09,7.74 10.6,4.36 27.86,3.85l99.4 -2.68 1.47 -46.94c-0.12,-0.69 -0.25,-1.25 -0.41,-1.88 -0.16,-0.61 -0.44,-1.21 -0.61,-1.74l-1.63 -3.18c-9.97,2.06 -5.96,7.5 -9.68,18.87 -11.23,34.33 -57.09,30.07 -62.25,25.21 -0.28,-0.44 -0.71,-1.63 -0.8,-1.33 -0.08,0.3 -0.62,-1.05 -0.72,-1.36 -2.78,-7.87 -2.7,-45.95 -2.16,-53.51 22.63,-1.22 26.45,5.85 29.87,18.54 3.72,13.77 -2.21,8.82 8.62,9.71 3.13,-6.89 1.95,-60.17 -2.19,-65.44 -17.29,2.14 5.23,27.34 -37.09,28.31 -0.17,-8.96 -0.39,-17.92 -0.67,-26.88 -0.2,-6.61 -2.38,-23.35 2.01,-27.13 0,0 47.81,-15.47 59.57,20.8 3.38,10.41 0.61,15.83 11.12,16.09 3.39,-7.11 -1.61,-38.53 -2.3,-49.06l-93.78 2.36c-16.54,0.37 -24.35,-2.21 -29.14,4.19z"/>
   <path class="fil0" d="M2338.02 1056.51c-10.18,6.59 -108.77,29.51 -114.25,25.68 -7.6,-5.05 -2.6,-1.48 -6.09,-10.03 -3.88,-9.5 2.84,-6.72 -6.93,-5.99 -3.02,2.86 -1.96,0.49 -2.24,4.88l28.13 119.84 41.39 -6.97c10.47,-2.22 8.78,0.01 10.32,-7.31 -9.29,-8.18 -27.61,2.03 -44.99,-16.42 -7.41,-7.86 -17.07,-31.31 -12.08,-44.58 7.58,-4.67 43.43,-12.16 54.52,-13.64 1.26,9.28 3.16,19.12 -2.42,26.23 -3.45,4.4 -5.06,4.32 -10.63,7 -9.81,4.72 -7.4,1.09 -7.92,8.65 6.43,5.55 35.71,-4.63 52.07,-8.23 11.48,-2.52 17.53,-6.99 7.52,-10.25 -3.19,-1.04 -4.33,-0.77 -7.85,-1.18 -13.29,-1.55 -20.74,-5.69 -21.79,-24.01 8.82,-4.19 42.71,-11.76 52.91,-11.26 8.17,24.24 14.99,46.96 -6.55,62.12 -20.09,14.15 -16.28,0.19 -16.21,14.65 6.3,3.05 40.84,-9.36 47.55,-11.64l-25.11 -108.93c-1.09,-4.71 -1.99,-15.08 -8.65,-8.72 -4.12,3.93 -1.54,0.09 -1.07,7.29 0.51,7.75 1.9,3.59 0.37,12.82z"/>
   <path class="fil1" d="M1352.41 1842.59l0.68 145.74 39.7 0.06 0.74 -190.09c-14.54,-5.89 -25.38,-18.2 -41.14,-24.02l0.02 68.31z"/>
   <path class="fil1" d="M1253.56 1801.47l0.37 186.48 39.93 0.41c2.03,-32.46 0.75,-172.03 0.78,-212.24l-41.08 25.35z"/>
   <path class="fil1" d="M549.13 611.94c-26.37,5.71 -38.39,33.13 -10.65,67.33 68.97,85 124.02,19.6 79.05,-26.63 -10.76,-11.07 -41.39,-46.55 -68.4,-40.7z"/>
   <path class="fil0" d="M2244.38 1210.93c-2.62,3.19 -3.34,3.27 -2.91,13.64 0.4,9.39 1.7,38.35 5.09,43.26 19.11,-2.49 -10.68,-22.9 41.51,-26.18 16.57,-1.05 49.79,-4.92 64.56,-3.26l-82.05 73.6c-9.85,10.09 -22.48,11.96 -21.09,29.83 28.72,1.41 98.49,-8.08 115.07,-6.36 21.83,2.26 9.23,16.19 23.93,18.06 1.38,-1.68 2.68,0.28 2.65,-10.85l-3.44 -36.83c-0.17,-0.64 -0.51,-1.38 -0.67,-1.89 -0.15,-0.5 -0.42,-1.26 -0.72,-1.85 -12.36,2.16 -3.12,-2.88 -7.89,6.49 -3.46,6.79 0.43,15.19 -28.2,17.19 -18.41,1.29 -37.43,2.81 -55.71,3.33l89.67 -82.63 -2.48 -39.29c-3.36,-8.4 -5.06,-5.01 -7.25,-1.42 -14.19,23.24 26.96,18.93 -90.78,26.48 -42.43,2.72 -24.8,-17.52 -39.29,-21.32z"/>
   <path class="fil0" d="M1761.55 2201.18c5.88,8.05 58.22,94.38 56.89,99.96 -3.84,5.66 -13.05,9.93 -13.29,12.77 2.37,10.82 12.25,0.5 26.85,-8.07 18.71,-10.99 70.36,-43.24 83.14,-48.07l-18.4 -37.05c-4.51,-8.4 -2.66,-8.47 -10.11,-8.45 -5.86,8.82 1.22,4.41 2.86,23.26 2.93,33.73 -32.63,48.31 -44.8,48.07 -5.35,-9.98 -24.61,-37.89 -26.06,-47.58 36.71,-16.86 30.65,12.49 43.62,8.5 6.25,-4.78 -14.31,-32.52 -21.1,-44.58 -4.48,-7.95 -4.02,-11.35 -10.36,-11.17 -6.92,5.85 -3.38,1.23 -1.81,10.21 1.28,7.32 2.82,6.04 0.81,14.47 -2,8.42 -8.35,12.05 -15.57,15.63 -7.69,-7.52 -24.92,-37.98 -25.99,-46.63 4.88,-4.54 27.95,-18.78 39.13,-18.88 23.74,-0.21 25.56,22.21 37.89,18.42 2.16,-7.54 -15.74,-31.1 -21.32,-37.3l-2.3 -2.25c-0.24,-0.24 -0.79,-0.75 -1.21,-1.09l-94.1 54.98c-4.09,2.54 -12.93,7.75 -3.81,10.06 6.97,1.76 6.66,-4.94 19.04,-5.21z"/>
   <path class="fil0" d="M1026.8 410.35c-18.24,-6.34 -96.65,-63.42 -106.56,-61.94 -8.29,1.24 -55.82,17.64 -30.06,20.05 2.24,0.2 5.04,-1.6 10.69,-0.97 12.6,1.42 16.7,26.52 25.51,50.55 25.54,69.66 16.83,50.27 -0.17,70.8l2.44 5.55c7.57,-0.93 19.98,-6.29 28.16,-9.24 13.07,-4.71 26.59,-6.18 24.41,-13.1 -2.45,-7.72 -16.79,3.6 -26.92,-9.9 -4.27,-5.69 -8.26,-18.28 -11.1,-25.99 -5.44,-14.75 -16.72,-41.95 -19.42,-56 26.96,14.61 64.1,40.34 93.46,58.39 12.64,7.77 18.77,17.16 34.7,12.73 -2.75,-20.22 -31.14,-82.69 -37.18,-106.39 -6.42,-25.26 14.58,-17.03 9.74,-30.86 -0.48,-0.23 -1.3,-0.95 -1.54,-0.44l-6.23 -0.13c-1.04,0.21 -7.87,2.96 -9.59,3.61 -6.27,2.4 -11.67,4.26 -17.8,6.3 -5.55,1.85 -15.3,3.25 -12.41,9.2 4.8,9.9 7.04,-1.38 20.12,6.07 8.69,4.95 26.05,56.44 29.75,71.71z"/>
   <path class="fil0" d="M1572.39 305.37c-0.59,15.28 22.67,4.72 14.36,30 -5.56,16.92 -23.05,84.11 -35.47,91.41 -9.37,5.5 -14.71,0.06 -20.77,5.23 1.46,8.74 2.5,5.5 24.39,12.58 8.27,2.67 21.93,9.19 28.18,7.42 9.61,-19.63 -27.13,7.17 -6.87,-52.75 5.28,-15.62 11.23,-45.32 19.59,-56.96 7.25,22.14 17.04,46.15 25.25,68.89l19.27 52.79c4.07,10.72 1.7,8.56 12.31,11.98 5.11,-5.33 10.23,-25.99 12.6,-33.54 4.6,-14.62 21.29,-77.74 31.94,-83.8 7.43,-4.22 13.05,-0.69 18.26,-4.8 -0.63,-9.35 2.95,-4.64 -21.88,-12.96l-19.93 -6.21c-0.54,-0.05 -1.19,-0.07 -1.7,-0.08l-5.03 0.78c-3.77,15.62 21.78,1.53 7.81,44.52 -5.35,16.46 -10.88,33.19 -15.95,49.81 -7.25,-10.56 -23.8,-60.92 -29.71,-76.7 -2.52,-6.72 -4.67,-12.48 -7.12,-19.08 -1.11,-2.99 -2.14,-6.15 -3.45,-9.67 -2.43,-6.54 -1.13,-6.08 -6.09,-9.25 -6.6,-4.21 -35.19,-12.57 -39.99,-9.61z"/>
   <path class="fil1" d="M723.45 1113.9c9.85,-6.88 37.77,-40.35 44.87,-52.95 18.48,-32.77 6.23,-87.78 -8.87,-120.15 -5.33,-11.45 -12.48,-21.09 -17.1,-33.1 -11.48,-29.86 3.96,-60.77 18.73,-76.48 -0.38,-0.32 -1.11,-1.12 -1.32,-0.71 -0.2,0.42 -1.06,-0.55 -1.35,-0.66 -0.3,-0.12 -1.06,-0.46 -1.42,-0.6 -0.39,-0.13 -1.08,-0.36 -1.51,-0.51 -2.84,-0.93 -4.99,-1.05 -7.92,-2.13 -3.56,-18.45 -1.29,-23.34 4.35,-39.91 -1.12,2.6 -7.6,10.28 -10.27,13.83 -76.72,102.02 50.59,101.2 -6.89,230.98 -5.36,12.11 -10.94,26.37 -15.32,39.27 -8.33,24.6 -3.46,24.97 4.02,43.12z"/>
   <path class="fil9" d="M1522.75 2165.47l25.97 -0.08 0.59 -37.44c19.95,-2.97 14.91,3.16 14.9,-21.83l-15.23 -0.81 -0.05 -88.54c-19.89,0.11 -20.05,9.83 -31.84,22.16l-35.43 41.02c-21.09,27.79 -27.92,20.69 -27.92,47.27l68.75 0.83 0.26 37.42zm5.95 -63.21l-35.9 -0.41 35.9 -46.53 0 46.94z"/>
   <path class="fil0" d="M303.47 980.09c-5.15,10.77 -0.4,13.59 21.56,32.7l63.31 56.88c31.44,27.17 5.41,28.24 21.85,34.71 5.5,-4.96 12.43,-29.12 15.36,-37.03 2.5,-6.75 4.11,-8.36 2.11,-13.44 -15.49,-5.4 -7.78,35.83 -45.07,-2.23 3.55,-11.81 12.21,-40.78 18.86,-49.44 11.01,-0.94 23.78,-3.32 34.08,0.51 1.17,8.11 -0.26,6.34 -0.64,11.14 -0.88,11.4 -4.25,3.53 1.93,8.93 7.87,-0.85 9.17,-13.19 14.99,-29.49 3.03,-8.49 12.45,-25.28 8.6,-32.56 -19.77,-1.83 8.97,9.79 -30.52,11.68 -21.65,1.04 -118.67,4.93 -126.42,7.64z"/>
   <path class="fil0" d="M1725.07 506.25c6.34,-12.7 -13.38,-5.68 -10.89,-23.54 0.98,-7 13.86,-17.42 19.24,-20.22l46.35 23.38c-0.61,65.47 -19.81,17.17 -25.41,34.99 0.03,4.27 -0.34,3.35 7.09,7.4l47.86 24.22c0.3,0.04 1.3,3.87 4,-1.74 7.4,-15.38 -11.62,10.61 -7.51,-35.59l8.33 -100.62c1.43,-16.39 5.35,-18.42 -6.02,-25.76 -6.66,2.44 -72.97,58.85 -83.17,67.54 -7.16,6.09 -13.07,11.98 -20.11,16.92 -15.05,10.57 -51.76,-1.94 -4.96,22.9 7.45,3.96 18.89,12.6 25.2,10.12z"/>
   <path class="fil0" d="M1685.42 2229.08c15.56,10.32 18.46,-9.97 33.19,27.93 5.79,14.89 13.63,31.22 17.37,45.95 -10.82,-4.33 -24.11,-13.37 -35.02,-19.59 -12.53,-7.14 -22.27,-12.99 -34.55,-20.07 -7.28,-4.2 -27.34,-18.83 -34.97,-18.22 -0.02,0.01 -38.26,11.17 -36.53,17.34 3.75,13.41 19.11,-12.47 29.37,14.7l18.34 47.14c2.93,7.54 10.79,25.08 11.66,32.05 2.76,22.16 -26.73,27.39 -8.14,29.77l36.55 -13.39c9.2,-3.33 9.15,-1.88 10.94,-8.57 -7.47,-9.12 -12.25,3.9 -24.82,-7.03 -8.38,-7.29 -31.46,-70.2 -33.98,-80.59 18.11,7.75 45.26,25.54 62.81,36.39 10.06,6.22 20.52,12.07 30.26,17.8 12.82,7.54 18.98,15.67 33.4,11.27 -1.87,-24.49 -45.9,-99.68 -39.01,-117.45 4.76,-12.31 10.57,-4.37 10.02,-13.02 -0.59,-9.01 -1.81,-3.18 -3.36,-3.6l-35.23 12.06c-11.08,4.47 -8.15,0.78 -8.3,9.13z"/>
   <path class="fil0" d="M2366.66 1539.92l7.38 0.32c1.77,-12 8.06,-45.65 3.53,-53.11 -16.54,0.35 -0.07,17.69 -28.26,17.66 -12.01,-0.01 -30.02,-3.06 -42.18,-4.39 -30.5,-3.35 -56.09,-4.71 -54.2,-39.91 1.82,-33.74 28.76,-32.48 59.4,-29.04 76.4,8.57 61.07,1.08 62.49,27.41l8.13 0.84c1.65,-12.35 9.56,-63.71 5.54,-70.28 -21.16,-0.11 12.65,21.81 -32.77,16.61 -31,-3.55 -80.58,-14.32 -97.12,0.99 -24.2,22.39 -38.97,95.73 27.56,103.23 16.61,1.87 32.71,3.5 49.24,5.29 35.61,3.88 26.47,11.58 31.26,24.38z"/>
   <path class="fil0" d="M377.76 849.07c-0.36,-11.31 2.94,-7.93 4.15,-14.89 0.94,-5.43 2.34,-0.7 -0.98,-4.71 -6.57,-6.19 -11.31,9.21 -20.73,26.39 -3.26,5.93 -6.02,11.1 -9.35,16.91 -4.72,8.21 -9.22,11.01 -6.16,17.31 11.91,1.24 2.42,3.34 8.7,-3.82 4.04,-4.62 -0.88,-2.35 5.72,-7.67 9.49,-1.42 64.11,31.81 76.65,38.82 49.63,27.74 91.22,-39.36 74.29,-76.48 -8.69,-19.04 -45.5,-34.75 -69.8,-48.18 -32.53,-17.97 -13.01,-23.97 -19.14,-34.93 -7.47,-0.64 -2.99,-5.73 -13.98,13.94 -4.94,8.85 -25.32,38.67 -9.56,32.33 4.89,-1.96 6.26,-10.68 20.22,-8.3 11.96,2.05 71.35,37.46 76.31,43.62 19.65,24.41 -4.78,68.89 -40.3,53.42 -9.65,-4.2 -70.71,-38.39 -76.04,-43.76z"/>
   <path class="fil0" d="M267.69 1532.77c-6.92,-22.99 1.2,-14.82 -8.17,-17.99 -3.56,2.07 -5.05,-1.09 -2.15,15.28l7.25 47.78c2.95,10.63 -1.41,4.82 5.82,7.11 6.1,-3.21 2.98,3.68 3.47,-7.65 0.24,-5.56 -0.91,-6.26 0.27,-12.54 28.28,-6.34 61.47,-8.22 90.1,-14.88 16.2,-3.77 23.66,-9.35 29.17,-23.17 9.45,-23.68 11.17,-95.8 -66,-83.39 -15.08,2.43 -30.24,4.9 -45.51,7.15 -37.06,5.47 -21.88,-13.93 -35.52,-15.76 -4.51,5.01 -2.95,-0.12 -2.38,10.08 0.11,2.07 1.53,8.86 1.97,11.43 1.24,7.36 1.94,16.36 3.3,22.99 2.05,9.93 6.09,15.15 9.93,3.12 3.37,-10.54 -0.11,-11.33 10.21,-16.32 12.24,-5.92 78.43,-15.2 91.4,-10.75 24.09,8.25 31.36,53.03 0.94,63.81 -11.99,4.25 -81.48,14.9 -94.1,13.7z"/>
   <path class="fil0" d="M628.54 534.64c5.7,2.31 75.81,87.82 73.49,95.77 -4.08,5.6 -2.19,2.48 -6.53,6.21 -6.51,5.61 -5.57,-1.14 -5.01,8.65 4.03,3.02 1.03,6.41 16.61,-5.88l31.75 -25.01c6.32,-4.82 13.52,-6.69 12.34,-15 -11.85,-4.81 -5.99,6.84 -25.14,7.33 -4.66,-5.4 -10.63,-14.12 -15.79,-20.59 -5.77,-7.22 -12.4,-15.05 -16.8,-23.09 19.27,-18.29 28.29,-11.05 44.26,1.47 2.41,-1.92 3.26,-2.5 5.5,-4.49 -2.95,-3.35 -4.53,-6.49 -8.48,-11.44 -3.32,-4.15 -7.1,-8.77 -10.58,-13.48l-15.07 -19.87c-6.31,-7.07 1.05,-4 -8.89,-4.67 -3.78,7.8 -1.94,2.48 0.39,10.71 4.45,15.73 3.71,22.35 -13.09,33.97 -4.64,-3.28 -31.83,-37.06 -30.83,-42.43 3.77,-6.27 25.47,-23.79 35.72,-25.91 27.82,-5.74 29.95,23.26 41.94,13.82 3.24,-5.43 -16.27,-24.47 -20.59,-29.43 -4.18,-4.81 -4.35,-5.79 -8.77,-8.76l-86.29 66.62c-3.62,2.65 -17.03,8.48 -7.06,13.2 5.02,2.37 8.54,-4.66 16.92,-7.7z"/>
   <path class="fil0" d="M1062.12 302.13l4.33 43.89c1.65,10.18 -0.85,8.66 6.06,8.63 9.69,-3.14 -2.56,-53.19 34.23,-49.68 5.61,7.26 23.69,105.86 21.98,118.56 -15.43,4.76 -19.85,1.18 -19.27,8.48 0.64,8.01 24.14,0.7 36.88,-1.79 7.19,-1.41 13.61,-2.54 20.26,-3.63 21.19,-3.48 15.16,-2.46 17.22,-7.68 -3.8,-6.43 2.73,-3.6 -7.98,-3.33 -7.03,0.18 -4.7,2.05 -14.09,0.63 -2.84,-6.13 -25.17,-110.93 -19.87,-117.04 12.24,-10.51 26.59,2.43 31.74,9.26 15.88,21.04 5.95,25.17 19.71,24.17 2.25,-11.75 -8.22,-38.41 -10.15,-52.17l-121.05 21.7z"/>
   <path class="fil0" d="M1935.04 2080.21c-68.37,3.3 -68.3,74.41 -30.4,86.91 31.58,10.4 63.61,-29.3 87.66,-20.28 31.6,11.85 -3.14,75.89 -54.73,50.58 -9.98,-4.9 -8.85,-9.02 -18.13,-4.92 0.94,7.81 13.91,21.5 19.17,27.93 14.57,17.83 14.1,20.7 16.84,-7.33 25.17,-4.15 33.36,-6.44 47.01,-20.7 10.5,-10.97 20.16,-30.28 11.88,-49.88 -20.41,-48.27 -71.68,-11.47 -89.99,-4.14 -47.06,18.84 -43.18,-57.15 14.13,-46.89 11.01,1.97 49.14,24.47 21.79,-6.28 -20.88,-23.47 -23.22,-36.34 -25.23,-5z"/>
   <path class="fil0" d="M2271.56 869.73c2.03,21.27 5.44,14.35 -17.43,37.13 -10.38,10.35 -19.27,18.96 -29.64,29.32l-44.06 43.38c-9.07,8.67 -7.49,5.74 -4.33,18.57l129.55 -0.7c24.86,0.92 17.41,14.95 28.25,11.31 3.01,-6.16 -10.57,-34.11 -13.52,-41.39 -4.73,-11.71 -1.9,-9.26 -10.05,-8.23 -4.84,7.95 3.67,7.09 0.24,18.86 -8.35,12.45 -29.67,8.74 -44.36,8.91 -16.55,0.2 -35.87,1.38 -52.09,0.16 4.4,-6.72 65.18,-67.16 71.74,-69.74 9.05,5.3 6.93,14.76 13.21,15.43 5.49,-1.08 6.75,-1.34 0.15,-16.13 -5.55,-12.46 -15.75,-43.68 -22.09,-49.04l-5.57 2.16z"/>
   <path class="fil1" d="M1174.66 1855.69l0.58 132.23 42.28 0.41 0.08 -162.71c-7.78,4 -39.97,22.87 -42.94,30.07z"/>
   <path class="fil0" d="M1909.29 464.77c-2.35,10.4 -40.17,58.07 -50.75,72.71 -5.21,7.23 -12.43,18.5 -17.35,23.2 -9.58,-0.78 -5.36,-0.23 -12.15,-4.22 -4.4,-2.59 1.54,-0.8 -3.54,-2.13 -6.22,-1.64 -10.86,2.92 1.22,11.38 4.95,3.48 7.59,5.63 12.53,9.38l77.59 56.19c5.41,-3.89 4.18,-3.96 8.78,-9.33 4.51,-5.27 5.36,-6.34 8.88,-10.74 5.44,-6.8 13.08,-13.97 16.68,-21.4 -15.3,-7.96 -15.57,12.85 -43.14,15.01 -16.33,1.29 -35.95,-14.4 -41.9,-24.33 3.6,-9.59 60.92,-87.17 70.36,-95.11 13.45,2.32 12.08,12.42 21.27,5.22 -1.58,-8.73 -30.24,-25.92 -37.62,-31.34 -4.35,-3.2 -16.69,-13.8 -20.29,-12.25 -9.23,3.95 -0.16,7.71 1.17,9.18 3.87,4.29 4.87,4.31 8.26,8.58z"/>
   <path class="fil1" d="M1173.78 1709.39l0.64 113.56c8.26,-3.62 15.87,-9.48 23.02,-14.17 6.95,-4.56 20.37,-10.01 20.37,-18.59l-0.04 -104.55c-14.57,-8.02 -28.24,-20.79 -44.07,-26.94l0.08 50.69z"/>
   <path class="fil0" d="M1018.84 2257.71c-0.32,13.19 -25.97,96.81 -31.39,111.66 -15.88,0.89 -18.23,-7.57 -21.62,3.83 4.56,4.04 102.63,32.61 114.71,34.69 4.98,-6.19 6.97,-16.06 10.12,-24.57 1.69,-4.55 3.27,-8.28 4.86,-12.86 3.51,-10.09 2.04,-10.11 0.31,-12.67 -18.15,1.7 -14.03,50.3 -78.4,22.02 0.01,-12.25 27.75,-105.84 32.9,-112.96 20.79,0.02 14.99,9.04 21.13,-1.88 -3.1,-3.82 0.4,-0.81 -3.74,-3.32 -2.51,-1.53 -60.42,-20.5 -63.92,-16.8 -6.69,7.09 8.64,8.28 15.04,12.86z"/>
   <path class="fil10" d="M1432.89 1017.21c1.61,11.14 -0.62,2.23 7.13,8.73l-6.87 3.79 8.54 8.07c-10.47,-0.05 -18.27,3.02 -28.22,0.24 -8.58,-2.39 -12.39,-8.81 -22.27,-9.32 -1.55,13.8 1.94,9.59 10.99,13.92 8.36,3.99 11.48,8.64 13.15,14.51 -24.19,-0.18 -21.69,-3.18 -24.8,4.39 -2.44,8.32 14.52,3.5 21.43,4.57 18.83,30.21 12.43,13.99 28.77,25.34 -8.21,8.23 -9.18,7.2 -14.12,19.65l9.44 7.86c-7.9,4.66 -13.6,4.98 -16.3,11.15 6.63,3.25 8.56,2.35 14.71,-1.22 5.02,-2.91 9.5,-5.09 14.48,-7.43 -1.08,-8.73 -2.3,-3.49 -2.07,-8.1 0.91,-0.57 1.63,-2.75 9.13,-0.45 7.08,2.17 6.31,1.98 9.66,5.78 -0.34,19.42 -16.28,3.37 -17.88,21.33 13.57,3.35 12.3,0.2 18.99,-7.32 5.58,-6.27 10.6,-7.45 13.35,-17.23 -5.24,-8.41 -9.89,2.03 -6.41,-14.56 2.36,-11.19 6.6,-8.05 14.32,-10.56 17.54,-5.69 -0.03,-19.52 2.25,-29.79 5.74,-2.29 7.31,4.11 17.44,3.97 -1.75,-10.05 -9.8,-13.13 -18.75,-7.91 -11.5,12.67 7.71,12.36 0.76,29.2 -14.55,5.96 -7.74,-1.31 -16.86,-6.68 -4,-2.36 -30.9,-1.59 -21,-17.85 3.78,-6.22 3.34,-3.52 9.69,-5.89 15.95,-5.96 5.31,-4.87 17.99,-12.14 -1.03,-13.75 0.77,-38.93 -27.31,-30.2 -6.87,2.13 -14.38,1.19 -19.36,4.15z"/>
   <path class="fil1" d="M1435.76 1988.43l35.76 0 0.66 -139.45c-12.9,-5.44 -24.42,-16.68 -36.06,-21.31l-0.36 160.76z"/>
   <path class="fil1" d="M729.83 1121.23c10.36,4.52 14.21,1.37 30.7,-13.62 5.26,-4.78 6.58,-7.05 12.23,-11.67 5.9,-4.83 8.28,-7.23 13.04,-13.23 12.89,-16.21 32.85,-39.05 32.13,-69.81 -1.18,-50.5 -49.51,-88.84 -70.97,-131.53 -3.14,35.39 33.19,50.5 38.4,129.69 4.29,65.34 -36.63,81.44 -55.53,110.17z"/>
   <path class="fil0" d="M2164.4 1870.65c-52.59,17.14 -25.35,92.13 24.29,75.7 48.93,-16.2 25.42,-91.89 -24.29,-75.7z"/>
   <path class="fil0" d="M452.89 1870.92c-53.97,19.58 -23.3,92.19 25.84,75.12 17.2,-5.98 32.11,-27.93 23.4,-51.31 -6.26,-16.79 -24.99,-32.61 -49.24,-23.81z"/>
   <path class="fil2" d="M1376.92 2038.15c-17.98,7.59 -19.05,38.97 -17.96,62.12 1.08,22.72 5.39,54.68 34.88,44.75 17.96,-6.06 17.87,-40.25 17.29,-62.25 -0.59,-22.62 -5.12,-56.9 -34.21,-44.62z"/>
   <path class="fil0" d="M788.54 411.1l3.75 7.42c8.76,-3.05 8.95,-6.5 19.67,-5.81 6.81,7.21 52.84,96.05 53.64,104.46 -7.43,8.3 -6.96,5.68 -15.72,11.61l4.23 7.08 50.73 -26.22c9.38,-4.65 13.58,-4.21 9.99,-12.12 -7.68,-2.97 -7.02,5.6 -21.31,3.58 -8.34,-11.93 -52.55,-95.49 -52.93,-106.48 2.68,-1.65 4.71,-2.4 8.11,-4.48 0.07,-0.05 3.87,-2.65 3.9,-2.68 3.48,-2.98 0.81,0.16 3.13,-3.49l-3.15 -5.67 -64.04 32.8z"/>
   <path class="fil1" d="M1436.18 1682.94l-0.06 113.96 35.53 22.69 0.21 -157.83c-11.14,4.01 -23.77,15.92 -35.68,21.18z"/>
   <path class="fil0" d="M1511.09 2281.49c4.33,8.77 8.31,1.33 20.84,2.87 5.77,9.48 28.41,101.83 26.81,112.86 -7.95,5.59 -12.05,3.42 -17.02,8.73 2.28,9.85 10.43,4.16 33.05,-1.38l29.94 -7.05c11.25,-4.8 4.5,2.48 6.26,-8.14l-18.92 0.25c-3.47,-3.75 -1.02,0.36 -4.2,-6.24 -2.34,-4.88 -25.23,-101.6 -24.48,-108.28 21.12,-7.82 16.67,-0.58 16.16,-11.09 -6.12,-3.45 -39.68,7.19 -52.17,10.03 -7.72,1.76 -13.59,1.37 -16.27,7.44z"/>
   <path class="fil0" d="M936.33 2222.48c1.01,12.21 -36.75,96.47 -44.16,108.51 -15.52,1.24 -16.26,-10.1 -21.56,1.32 0.38,2.76 59.04,29.17 63.76,27.79 6.31,-11.58 -3.01,-5.24 -12.78,-15.29 -2.37,-5.59 39.3,-100.13 45.4,-107.12 11.11,0.48 12.77,6.16 19.52,2.31 0.14,-8.3 5.89,-3.49 -17.29,-13.15 -7.51,-3.13 -15.25,-6.52 -22.89,-9.87 -5.18,-2.27 -18.73,-9.77 -22.42,-7.92 -11.38,5.68 9.02,11.9 12.42,13.42z"/>
   <path class="fil0" d="M1137.04 2283.67c3.51,7.86 -5.74,0.22 18.33,7.73 0.47,10.24 -12.79,106.41 -19.39,115.54l-19.29 0.31c-0.65,11.96 -0.43,7.63 32.51,13.02 6.58,1.08 12.48,2 18.8,3.18 0.74,0.14 9.52,1.77 9.55,1.77 13.34,0.33 4.77,3.17 8.47,-3.99 -4.71,-8.54 -2.34,-1.33 -18.18,-8.24 -0.37,-15.78 13.61,-105.5 19.34,-114.55 9.75,-4.14 11.63,2 19.23,-1.67 0.43,-10.72 -0.7,-6.78 -33.18,-12.24 -6.05,-1.01 -12.28,-1.92 -18.57,-3.09 -0.8,-0.14 -9.36,-1.7 -9.53,-1.7 -14.16,-0.19 -4.53,0.05 -8.09,3.93z"/>
   <path class="fil0" d="M1133.67 2140.2l0.24 24.71 26.82 0.9 0.09 -19.27 -0.09 -128.87c-12.02,-1.43 -10.67,0.1 -16.67,6.36 -11.64,12.13 -29.22,20.04 -40.96,28.37l0.36 24.02 30.44 -16.28 -0.23 80.06z"/>
   <path class="fil1" d="M1609.71 1563.45c-21.3,14.59 -6.03,32.01 12.38,47.66 50.83,43.2 96.15,2.9 46.42,-33.34 -11.49,-8.37 -41.75,-26 -58.8,-14.32z"/>
   <path class="fil1" d="M1011.94 1555.28c-22.04,5.74 -38.52,18.33 -47.33,31.71 -6.63,10.08 -7.92,18.11 0.23,26.28 22.8,22.88 108.22,-22.07 82.04,-53.55 -6.49,-7.8 -23.96,-7.31 -34.94,-4.44z"/>
   <path class="fil1" d="M2019.38 1194.76c-7.89,-50.68 17,-45.64 31.02,-74.57 14.53,-29.99 6.24,-59.2 -13.08,-77.98 -3.34,19.82 -2.1,25.79 -10.88,43.13 -11,21.72 -35.45,52.56 -33.01,77.97 1.28,13.33 15.56,26.97 25.95,31.45z"/>
   <path class="fil1" d="M1330.61 1723.67c4.23,6.34 9.27,8.8 16.32,12.5 12.96,-5.73 32.51,-20.18 44.77,-27.9l87.31 -56.72c7.06,-4.44 46.87,-23.99 29.46,-35.98 -9.11,-6.27 -30.98,12.18 -45.72,21.91 -15.17,10.02 -28.17,19.25 -43.05,28.9 -15.52,10.06 -28.46,18.61 -43.54,28.57 -11.35,7.5 -34.49,24.33 -45.55,28.72z"/>
   <path class="fil1" d="M824.88 1281.42l47.03 37.82 24.19 -19.21c6.87,-5.24 21.05,-15.45 24.68,-20.73 -10.01,-6.04 -27.94,-24.77 -35.91,-31.4 -3.95,-3.29 -9.18,-7.36 -14.08,-9.89 -14.11,15.99 -30.85,28.27 -45.91,43.41z"/>
   <path class="fil1" d="M1587.8 1643.47c-40.15,10.38 -26.56,70.1 16.51,59.43 36.89,-9.15 25.1,-70.19 -16.51,-59.43z"/>
   <path class="fil1" d="M1041.86 1617.24c-41.26,10.93 -24.77,69.37 16.55,59.42 36.45,-8.79 24.93,-70.41 -16.55,-59.42z"/>
   <path class="fil1" d="M370.89 1679.66c14.09,-2.42 42.65,-12.97 54.71,-17.96 1.34,-25.16 -14.72,-50.84 -41.71,-41.97 -31.45,10.35 -18.99,32.38 -13,59.93z"/>
   <path class="fil1" d="M834.41 1192.06l38.75 34c4.25,-3.35 4.83,-5.64 9.18,-9.57 6.07,-5.48 25.67,-21.06 31.3,-28.97 -8.95,-9.29 -23.69,-18.74 -33.99,-26.24 -15.03,8.03 -30.96,23.05 -45.24,30.78z"/>
   <path class="fil1" d="M1427.32 2359.13c15.11,-1.35 32.35,-1.73 39.55,-14.42 7.46,-13.17 1.32,-35.56 -7.67,-42.28 -6.39,-4.78 -14.26,-4.71 -22.87,-3.97 -24.5,2.11 -12.77,11.15 -9.01,60.67z"/>
   <path class="fil1" d="M670.53 2119.9c6.54,7.93 21.65,23.85 39.5,18.29 8.11,-2.52 41.61,-28.77 7.55,-55.03 -9.66,-7.45 -12.27,-5.66 -18.59,2.36 -9.62,12.2 -19.67,22.33 -28.46,34.38z"/>
   <path class="fil1" d="M1275.69 2363.64c16.79,0.7 33.1,1.01 41.06,-9.71 8.14,-10.97 6.13,-34.25 -2.21,-42.21 -3.38,-3.22 -35.27,-17.08 -37.96,2.34 -1.15,8.34 -1.78,41.51 -0.89,49.58z"/>
   <path class="fil7" d="M1493.23 776.08l-30.37 0.75c7.63,8.43 14.94,13.17 23.35,19.84l-8.99 28.53c8.1,-2.62 20.11,-11.98 26.2,-16 0.56,0.57 19.84,14.59 25.84,16.16l-7.7 -27.51c7.66,-8.44 17.85,-10.96 23.33,-20.01l-29.83 -0.94 -7.97 -22.4c-3.21,-6.19 -1.13,-2.29 -2.94,-4.53 -5.68,7.77 -6.55,16.8 -10.92,26.11z"/>
   <path class="fil7" d="M1160.94 776.87l-30.62 -0.13c6.06,9.18 17.74,14.11 22.84,19.35l-8.25 29.11c10.1,-2.37 18.56,-10.95 26.11,-15.92 10.37,4.82 15.13,12.96 25.91,16.76l-8.49 -29.34c14.45,-9.55 13,-7.04 24.05,-18.44l-29.32 -1 -10.43 -28.43 -11.8 28.04z"/>
   <path class="fil7" d="M1327.48 666.71l-30.48 -0.23 11.9 11.31c4.23,2.88 7.55,5.7 11.94,7.35l-9.15 30.04c9.88,-3.24 18.37,-12.07 26.51,-15.7 8.08,5.27 15.11,12 25.16,16.39l-8.78 -30.55c7.93,-2.41 7.01,-3.06 13.18,-7.4 7.35,-5.17 7.1,-2.63 11.44,-9.52l-30.09 -1.74 -10.91 -26.57c-5.71,8.05 -7.41,17.44 -10.72,26.62z"/>
   <path class="fil1" d="M311.84 1698.21c14.74,-0.13 35.84,-11.19 51.21,-14.23 -4.89,-23.13 -12.78,-44.41 -40.65,-36.27 -26.72,7.8 -21.5,30.01 -10.56,50.5z"/>
   <path class="fil1" d="M1070.71 1122.02c-13.22,-10.21 -16.14,4 -20.42,-42.8 -6.03,3.64 -7.93,4.9 -13.11,10.42 -7.53,8.02 -35.68,25.6 -26.65,45.7 12.12,26.97 49.57,-2.83 60.18,-13.32z"/>
   <path class="fil1" d="M1604.09 1120.65c8.41,8.16 32.57,28.93 47.41,25.91 6.13,-1.24 4.24,-0.96 8.12,-4.49 15.32,-13.91 2.26,-32.19 -7.03,-39.67l-27.48 -24.21c-0.12,18.02 -3.94,43.65 -21.02,42.46z"/>
   <path class="fil1" d="M1437.01 344.32c22.96,5.22 42.77,2.98 46.8,-19.93 4.5,-25.58 -14.38,-35.83 -38.16,-31.61 -5.06,11.6 -7,37.6 -8.64,51.54z"/>
   <path class="fil1" d="M2065.9 671.97c9.71,11.17 26.51,33.13 48.55,14.37 20.41,-17.38 9.18,-38.97 -7.64,-48.18 -9.57,3.25 -34.88,26.08 -40.91,33.81z"/>
   <path class="fil1" d="M252.55 1342.94l53.3 2.64c0.34,-24.38 -0.88,-43.65 -26.74,-44.46 -26.63,-0.84 -31.29,17.79 -26.56,41.82z"/>
   <polygon class="fil1" points="879.14,1325.09 932.05,1367.39 925.75,1288.28 "/>
   <path class="fil1" d="M1733.98 1741.83c-6.3,3.26 -8.81,6.4 1.07,20.52 8.5,12.13 37.86,48.47 53.65,39.46 15.71,-8.97 -13.3,-34.78 -17.18,-38.81 -4.71,-4.88 -25.45,-27.43 -37.54,-21.17z"/>
   <path class="fil1" d="M907.71 1741.24c-14.85,4.76 -45.92,37.69 -49.05,45.9 -7.68,20.12 16.16,25.51 48.08,-13.51 14.31,-17.5 22.92,-39.41 0.97,-32.39z"/>
   <path class="fil2" d="M1253.6 2038.65c-26.4,8.97 -17.72,61.75 15.92,49.85 22.85,-8.08 16.17,-60.74 -15.92,-49.85z"/>
   <path class="fil1" d="M841.9 1119.83c7.57,6.52 31.99,26.34 40.32,30.15 6.93,-8.18 18.08,-11.87 26.57,-20.4 -7.69,-4.06 -20.14,-27.02 -35.54,-35.42l-27.81 22.19c-0.36,0.31 -0.89,0.82 -1.21,1.11l-2.33 2.37z"/>
   <path class="fil1" d="M812.85 1365.71l50.9 -40.62c-6.73,-6.8 -13.02,-11.54 -20.93,-17.71 -5.49,-4.27 -17.92,-16 -22.4,-15.92l-7.57 74.25z"/>
   <path class="fil1" d="M850.87 1052.05c2.64,7.62 18.91,23.61 24.38,30.1l22.63 -16.26c1.5,-1.22 2.03,-1.59 3.45,-2.95 0.28,-0.28 0.76,-0.76 1.02,-1.03l1.87 -2.13c0.17,-0.2 0.62,-0.71 0.89,-1.09 -11.47,-8.51 -17.39,-21.11 -28.87,-28.94l-25.37 22.3z"/>
   <path class="fil1" d="M947.22 1750.27c-46.61,23.68 -44.4,90.67 7.34,25.32 7.06,-8.92 15.65,-37.01 -7.34,-25.32z"/>
   <path class="fil1" d="M1253.42 1770.6l32.07 -20.03c21.51,-13.35 2.09,-19.25 -9.5,-27.04 -8.11,-5.44 -14.05,-10.25 -22.56,-13.83l-0.01 60.9z"/>
   <path class="fil1" d="M1690.41 1751.62c-9.66,9.92 7.36,27.23 12.36,32.1 3.66,3.57 22.69,25.61 31.29,17.87 14.09,-12.7 -29.27,-64.76 -43.65,-49.97z"/>
   <path class="fil1" d="M822.25 1270.82l43.63 -39.41c-7.84,-6.05 -31.17,-28.15 -36.45,-29.99l-7.18 69.4z"/>
   <path class="fil1" d="M1353.2 1739.96c7.85,7.35 30.99,22.87 40.52,26.35l0.04 -41.63 0 -12.08c-8.12,2.96 -36.92,20.62 -40.56,27.36z"/>
   <path class="fil1" d="M1741.87 456.32l38.68 19.36 5.09 -56.56c-5.85,2.83 -16.73,12.55 -21.85,17.06 -7.26,6.4 -16.83,12.2 -21.92,20.14z"/>
   <path class="fil1" d="M375.73 1044.15l13.85 -41.15 -55.04 2.43c1.24,6.46 28.59,29.05 35.41,34.64l5.78 4.08z"/>
   <path class="fil1" d="M852.76 992.29l24.25 24.77c17.75,-13.74 12.71,-11.63 23.22,-21.69 -9.49,-8.34 -12.58,-16.43 -24.5,-23.15 -7.67,6.08 -15.64,13.52 -22.97,20.07z"/>
   <polygon class="fil2" points="1528.7,2102.26 1492.8,2101.85 1528.7,2055.32 "/>
  </g>
 </g>
</svg>
